<svg width="1181" height="1018" viewBox="0 0 1181 1018" fill="none" xmlns="http://www.w3.org/2000/svg">
<g clip-path="url(#clip0_8964_4790)">
<path d="M1260.72 496.063L1260.72 496.063L1258.99 496.405L1258.99 496.406C1270.46 554.303 1271.77 612.676 1263.38 669.549C1260.51 663.31 1254.05 657.922 1244.24 653.417C1252.67 595.11 1251.56 535.636 1240.58 477.037C1251.14 482.336 1257.48 488.78 1258.99 496.399L1260.72 496.056C1259.09 487.815 1252.14 480.796 1240.21 475.093C1239.99 473.935 1239.8 472.779 1239.57 471.623C1228.34 414.948 1208.43 362.092 1180.3 313.872C1186.1 317.141 1190.31 320.842 1192.78 324.986L1194.3 324.082C1191.39 319.213 1186.14 314.899 1178.71 311.152C1171.16 298.412 1163.07 285.978 1154.38 273.912C1130 240.096 1101.87 210.039 1070.32 183.953L1070.76 183.407C1069.2 182.18 1067.4 181.016 1065.41 179.906C1045.72 164.061 1024.74 149.733 1002.52 137.011L1001.65 138.544C1021.53 149.927 1040.41 162.624 1058.26 176.527C1045.26 171.291 1026.44 167.755 1002.88 165.888C970.019 135.997 933.914 112.557 895.543 96.1046C907.3 97.4247 917.008 99.4281 924.263 102.143L924.877 100.493C916.169 97.2304 904.216 94.9552 889.6 93.6322C859.375 81.312 827.806 73.2666 795.351 69.7667L795.165 71.5213C825.549 74.7957 855.158 82.0878 883.61 93.1537C865.011 91.8548 842.577 91.9545 817.28 93.3953C796.963 81.9081 776.092 74.0683 755.053 70.1013C767.749 69.7106 779.082 69.9522 788.633 70.8592L788.798 69.1016C777.042 67.9849 762.618 67.875 746.271 68.6937C736.641 67.3736 726.993 66.8404 717.35 67.1707L717.411 68.9327C723.546 68.7252 729.683 68.8652 735.815 69.3328C717.957 70.592 698.175 72.8573 677.308 76.0438C671.472 73.0302 665.803 71.8141 660.351 72.4729L660.558 74.227C664.995 73.6886 669.565 74.4971 674.245 76.5171C661.825 78.4584 649.043 80.7211 636.074 83.2912C623.114 85.8594 610.428 88.644 598.194 91.5918C601.746 87.9368 605.669 85.445 609.976 84.2508L609.498 82.5503C604.207 84.0204 599.428 87.3107 595.176 92.3269C574.675 97.3414 555.487 102.802 538.463 108.463C543.982 105.676 549.627 103.194 555.401 101.038L554.786 99.3861C545.719 102.767 536.979 106.959 528.556 111.87C513.821 117.102 501.015 122.45 490.816 127.717L491.626 129.285C499.831 125.045 509.742 120.756 520.987 116.514C503.069 128.204 486.783 143.401 472.397 161.754C448.463 170.07 427.677 178.535 410.978 186.829C433.063 165.745 457.662 147.703 484.511 133.084L483.67 131.532C454.996 147.15 428.872 166.635 405.624 189.559C392.776 196.271 382.69 202.848 375.887 209.113L377.085 210.412C382.738 205.202 390.859 199.728 401.079 194.106C371.885 223.948 347.451 259.382 328.479 299.543C307.402 310.261 291.353 320.703 281.33 330.506C292.54 310.835 305.146 291.9 319.193 273.785L317.799 272.702C302.103 292.946 288.165 314.2 276.003 336.367C274.639 338.092 273.453 339.799 272.5 341.474L273.094 341.813C253.85 377.995 239.277 416.561 229.629 457.169C226.191 471.642 223.451 486.22 221.339 500.88C215.972 507.087 212.782 512.999 211.904 518.541L213.644 518.818C214.392 514.123 216.857 509.181 220.901 504.037C213.29 559.326 215.045 615.77 226.272 672.428C226.502 673.584 226.763 674.726 226.999 675.881C218.16 685.705 214.414 694.837 216.047 703.078L217.777 702.735C216.267 695.116 219.667 686.741 227.408 677.823C239.595 736.183 261.261 791.583 291.294 842.268C283.933 850.176 280.021 857.619 279.745 864.482C250.305 815.106 229.246 760.647 217.772 702.743L217.768 702.744L216.042 703.086L216.038 703.087C227.785 762.363 249.516 818.052 279.999 868.387C280.028 868.55 280.033 868.718 280.065 868.88C280.502 871.084 281.353 873.234 282.593 875.257L283.805 874.518C314.094 922.947 352.554 966.284 398.16 1002.85C398.21 1003.37 398.263 1003.89 398.363 1004.39C399.197 1008.6 401.814 1012.45 406.135 1015.83L407.223 1014.44C403.38 1011.44 401.028 1008.07 400.191 1004.44C413.09 1014.68 426.534 1024.4 440.53 1033.53C470.93 1053.36 502.94 1069.85 536.082 1082.96C536.087 1083.68 536.134 1084.39 536.273 1085.1C536.721 1087.35 537.872 1089.44 539.696 1091.37C517.124 1082.6 495.137 1072.11 474.182 1060.06L473.305 1061.59C495.946 1074.62 519.786 1085.83 544.266 1095.01C546.47 1096.37 549.108 1097.63 552.187 1098.76L552.466 1098.01C587.721 1110.5 624.163 1118.76 661.178 1122.78C665.251 1125.88 672.516 1128.12 682.924 1129.47L682.918 1129.53C683.53 1129.59 684.142 1129.63 684.751 1129.69C686.272 1129.87 687.828 1130.03 689.472 1130.17L689.477 1130.11C718.555 1132.55 747.746 1131.27 776.805 1126.3C778.664 1126.89 780.97 1127.31 783.659 1127.58C776.021 1128.95 768.351 1129.83 760.676 1130.15L760.752 1131.91C770.767 1131.5 780.772 1130.14 790.712 1127.94C798.263 1128.04 807.487 1127.39 817.314 1126.18L817.364 1126.52L818.171 1126.37C818.988 1126.21 819.802 1125.99 820.603 1125.75C827.607 1124.81 834.851 1123.6 841.952 1122.2C849.054 1120.79 856.205 1119.14 863.04 1117.34C863.877 1117.26 864.706 1117.15 865.523 1116.99L866.324 1116.82L866.24 1116.48C875.789 1113.85 884.569 1110.94 891.511 1107.97C901.538 1106.21 911.3 1103.65 920.714 1100.21L920.112 1098.56C912.898 1101.19 905.476 1103.3 897.891 1104.94C900.276 1103.67 902.247 1102.4 903.741 1101.15C932.991 1094.55 960.915 1084.36 987.258 1070.66L987.288 1070.73C988.391 1070.14 989.45 1069.57 990.473 1068.99C990.899 1068.77 991.335 1068.56 991.756 1068.33L991.728 1068.27C1000.83 1063.05 1006.72 1058.21 1009.3 1053.79C1042.07 1035.9 1072.69 1014.3 1100.57 989.232L1101.11 989.814C1103.39 987.69 1105.21 985.629 1106.67 983.618C1125.84 965.776 1143.63 946.293 1159.62 925.581L1158.22 924.501C1143.44 943.654 1127.11 961.744 1109.57 978.463C1110.53 975.975 1110.83 973.59 1110.38 971.325C1110.24 970.622 1110.01 969.944 1109.74 969.274C1135.38 944.514 1158.68 917.07 1179.22 887.143C1188.68 873.367 1197.4 859.251 1205.42 844.861C1206.03 848.506 1205.16 852.471 1202.81 856.669L1204.35 857.53C1206.99 852.804 1207.92 848.3 1207.09 844.128C1206.99 843.615 1206.84 843.117 1206.69 842.613C1234.89 791.432 1253.92 736.716 1263.45 680.411L1264.86 680.638C1265.24 678.286 1265.21 675.966 1264.77 673.742C1264.74 673.573 1264.68 673.409 1264.64 673.242C1273.62 615.092 1272.47 555.332 1260.72 496.063ZM1008.96 1047.71C1009.25 1049.18 1008.89 1050.79 1007.96 1052.51C975.878 1069.98 941.736 1083.87 906.049 1093.93C905.663 1093.49 905.154 1093.08 904.53 1092.71C940.979 1080.76 975.734 1065.1 1008.35 1046.06C1008.64 1046.59 1008.85 1047.14 1008.96 1047.71ZM903.044 1099.5C888.704 1102.72 874.051 1105.11 859.1 1106.59C874.701 1103.76 890.064 1100.23 905.163 1096.02C905.282 1097.01 904.56 1098.18 903.044 1099.5ZM773.532 1122.1C789.088 1120.23 804.642 1117.64 820.14 1114.31C805.752 1118.64 791.304 1122.02 776.819 1124.51C774.915 1123.87 773.799 1123.06 773.532 1122.1ZM661.902 1121.09C660.38 1119.86 659.45 1118.5 659.159 1117.03C659.046 1116.46 659.029 1115.87 659.089 1115.28C696.504 1120.43 734.602 1121.65 772.854 1118.81C772.418 1119.39 772.105 1119.95 771.917 1120.51C735.086 1124.82 698.22 1125 661.902 1121.09ZM297.456 620.322C286.457 564.818 283.382 510.108 288.115 457.842C318.339 442.838 356.697 427.347 401.238 412.105C400.925 465.431 406.94 522.274 419.243 580.07C396.758 587.723 375.511 595.513 355.761 603.382C334.583 611.819 315.675 620.126 299.112 628.238C298.555 625.602 297.98 622.969 297.456 620.322ZM1155.38 458.553C1136.98 457.37 1116.33 456.902 1093.54 457.177C1072.28 457.435 1049.67 458.337 1025.96 459.838C1015.29 401.708 999.169 346.864 978.539 297.685C1025.53 294.78 1066.89 294.47 1100.55 296.814C1124.87 343.332 1142.89 395.086 1153.89 450.603C1154.42 453.25 1154.89 455.9 1155.38 458.553ZM403.009 411.505C454.818 393.854 514.883 376.561 580.207 360.788C586.495 412.469 595.755 468.304 607.668 526.296C539.908 542.584 476.592 560.618 420.927 579.494C408.632 521.665 402.647 464.816 403.009 411.505ZM686.445 337.48C722.347 330.365 757.563 324.138 791.662 318.801C805.384 368.292 818.219 423.383 829.497 482.263C793.445 487.936 756.471 494.497 719.031 501.916C681.587 509.337 644.901 517.373 609.411 525.881C597.379 467.146 588.234 411.324 582.05 360.347C615.613 352.268 650.549 344.594 686.445 337.48ZM581.838 358.568C575.588 306.599 572.423 259.706 572.437 219.971C600.454 213.19 629.557 206.773 659.372 200.864C689.187 194.956 718.534 189.79 747.015 185.372C762.183 222.098 777.14 266.658 791.181 317.083C756.834 322.463 721.64 328.707 686.102 335.75C650.564 342.792 615.642 350.443 581.838 358.568ZM1024.18 459.948C965.525 463.727 900.119 471.201 831.268 481.986C820.165 423.83 807.431 368.68 793.535 318.51C859.953 308.169 922.062 301.247 976.673 297.801C997.347 346.951 1013.5 401.793 1024.18 459.948ZM754.511 680.957C789.616 674 823.997 667.903 857.294 662.647C864.422 723.281 868.929 780.928 870.916 833.651C843.736 837.956 815.897 842.917 787.713 848.502C759.527 854.088 731.895 860.119 705.128 866.505C686.858 817.009 669.04 761.999 652.507 703.236C685.291 695.39 719.402 687.914 754.511 680.957ZM652.028 701.526C644.698 675.415 637.626 648.572 630.88 621.137C623.074 589.365 616.038 558.11 609.766 527.616C644.97 519.171 681.63 511.127 719.374 503.647C757.115 496.168 794.068 489.625 829.829 484.006C835.663 514.583 841.079 546.163 845.976 578.512C850.205 606.445 853.902 633.957 857.087 660.889C823.489 666.191 789.044 672.315 754.168 679.226C719.292 686.137 685.111 693.614 652.028 701.526ZM788.056 850.233C816.364 844.624 844.101 839.689 870.977 835.431C872.711 882.717 872.409 926.022 870.142 963.905C851.535 966.89 832.308 970.328 812.628 974.228C792.946 978.129 773.857 982.284 755.518 986.62C738.974 952.464 722.181 912.547 705.747 868.174C732.22 861.86 759.748 855.843 788.056 850.233ZM812.971 975.959C832.286 972.131 851.376 968.713 870.03 965.733C868.227 994.89 865.245 1020.79 861.128 1042.8C850.202 1044.57 838.938 1046.6 827.421 1048.88C815.901 1051.16 804.714 1053.59 793.938 1056.12C781.737 1037.34 769.103 1014.53 756.318 988.268C774.699 983.908 793.653 979.787 812.971 975.959ZM837.041 1097.42C840 1096.83 842.89 1096.3 845.721 1095.81C843.637 1100.33 841.431 1104.35 839.108 1107.87C835.62 1105.5 832.048 1102.63 828.396 1099.24C831.2 1098.62 834.078 1098.01 837.041 1097.42ZM826.851 1097.79C816.728 1088.06 806.032 1074.57 794.973 1057.72C805.592 1055.21 816.552 1052.83 827.765 1050.61C838.974 1048.39 850.015 1046.41 860.786 1044.68C856.987 1064.48 852.246 1081.02 846.595 1093.87C843.292 1094.43 839.979 1095.04 836.698 1095.69C833.414 1096.34 830.119 1097.04 826.851 1097.79ZM847.656 1095.48C852.978 1094.58 858.035 1093.86 862.793 1093.3C856.011 1098.11 849.069 1102.48 841.972 1106.41C843.953 1103.15 845.847 1099.5 847.656 1095.48ZM835.904 1107.61C827.849 1106.69 819.76 1105.29 811.658 1103.44C816.273 1102.14 821.22 1100.88 826.48 1099.67C829.685 1102.7 832.831 1105.36 835.904 1107.61ZM828.421 1108.41C818.183 1108.6 807.954 1108.37 797.741 1107.77C800.961 1106.65 804.457 1105.53 808.209 1104.42C814.959 1106.07 821.697 1107.39 828.421 1108.41ZM821.449 1110.22C809.266 1111.53 797.076 1112.42 784.896 1112.88C787.39 1111.72 790.261 1110.52 793.472 1109.31C802.803 1109.94 812.134 1110.24 821.449 1110.22ZM849.192 1104.29C855.022 1100.79 860.744 1096.99 866.362 1092.9C870.253 1092.49 873.908 1092.19 877.314 1092C868.101 1096.45 858.732 1100.57 849.192 1104.29ZM881.849 1091.8C885.276 1091.7 888.389 1091.7 891.138 1091.83C879.7 1096.05 868.091 1099.87 856.328 1103.31C864.95 1099.77 873.464 1095.94 881.849 1091.8ZM869.161 1090.85C888.598 1076.26 906.688 1058.16 923.284 1037.09C938.602 1035.91 952.492 1035.43 964.41 1035.67C938.669 1057.05 910.93 1075.36 881.433 1090.02C877.598 1090.15 873.476 1090.44 869.161 1090.85ZM865.727 1091.2C860.172 1091.8 854.367 1092.59 848.517 1093.55C854.041 1080.71 858.726 1064.24 862.514 1044.4C883.328 1041.09 903.071 1038.72 920.94 1037.27C904.027 1058.53 885.565 1076.69 865.727 1091.2ZM862.87 1042.52C866.926 1020.73 869.914 994.963 871.743 965.464C907.442 959.802 941.505 955.75 972.398 953.492C957.844 984.002 941.159 1011.5 922.567 1035.22C904.486 1036.65 884.359 1039.08 862.87 1042.52ZM792.22 1056.52C771.045 1061.54 751.512 1066.97 734.252 1072.54C708.018 1057.7 682.108 1038.64 657.019 1015.99C686.438 1006.3 719.468 997.052 754.632 988.672C767.573 1015.24 780.164 1037.92 792.22 1056.52ZM793.269 1058.13C804.333 1075.02 814.946 1088.45 824.949 1098.22C819.177 1099.57 813.509 1101.05 808.148 1102.61C784.276 1096.77 760.281 1087.02 736.538 1073.82C753.609 1068.34 772.768 1063 793.269 1058.13ZM804.835 1103.6C800.693 1104.86 796.775 1106.17 793.181 1107.51C760.321 1105.21 727.691 1098.86 695.742 1088.91C706.672 1084.15 719.692 1079.3 734.304 1074.54C757.682 1087.69 781.305 1097.52 804.835 1103.6ZM789.339 1108.99C786.044 1110.33 783.108 1111.67 780.615 1113.02C742.685 1114.14 704.863 1111.16 667.686 1104.21C673.52 1099.77 682.138 1095 693.011 1090.12C724.843 1100.15 757.101 1106.48 789.339 1108.99ZM777.441 1114.88C776.394 1115.56 775.477 1116.24 774.7 1116.9C735.967 1119.92 697.377 1118.76 659.492 1113.55C660.365 1111.1 662.538 1108.46 665.869 1105.67C702.592 1112.64 739.96 1115.76 777.441 1114.88ZM781.123 1114.77C790.035 1114.49 798.954 1113.99 807.875 1113.27C797.912 1114.66 787.951 1115.77 777.998 1116.61C778.912 1116.01 779.949 1115.4 781.123 1114.77ZM870.039 1100.95C878.564 1098.22 886.997 1095.27 895.345 1092.13C896.671 1092.27 897.868 1092.44 898.94 1092.64C889.417 1095.67 879.779 1098.43 870.039 1100.95ZM898.792 1090.83C933.781 1077.35 967.125 1060.22 998.423 1039.76C1002.56 1041.07 1005.58 1042.69 1007.32 1044.62C974.288 1063.88 939.059 1079.67 902.101 1091.66C901.125 1091.34 900.02 1091.06 898.792 1090.83ZM895.15 1090.31C892.334 1090.03 889.104 1089.9 885.547 1089.93C914.391 1075.31 941.792 1057.15 967.399 1035.75C979.311 1036.11 989.093 1037.23 996.187 1039.11C964.469 1059.71 930.641 1076.89 895.15 1090.31ZM969.511 1033.95C997.454 1010.3 1023.25 982.817 1046.4 951.882C1066.46 952.853 1082.14 955.268 1092.77 958.966C1064.07 988.997 1032.31 1015.44 998.053 1037.9C991.052 1035.77 981.375 1034.46 969.511 1033.95ZM966.636 1033.85C954.641 1033.47 940.571 1033.87 924.908 1035.04C943.355 1011.28 959.901 983.785 974.347 953.352C989.864 952.244 1004.57 951.599 1018.26 951.43C1027.44 951.317 1035.99 951.437 1043.9 951.772C1020.86 982.363 994.994 1009.99 966.636 1033.85ZM975.286 951.36C994.056 911.401 1009.2 866.404 1020.2 817.993C1058.15 815.399 1091.8 814.807 1119.67 816.241C1100.28 864.705 1075.23 909.823 1045.33 949.881C1025.54 948.976 1001.89 949.467 975.286 951.36ZM973.335 951.508C942.858 953.739 908.59 957.783 871.847 963.631C871.988 961.277 872.13 958.93 872.255 956.531C874.2 919.639 874.336 878.797 872.745 835.151C925.418 826.856 974.724 821.167 1018.42 818.115C1007.38 866.575 992.17 911.577 973.335 951.508ZM872.679 833.372C870.681 779.879 866.09 722.199 859.046 662.377C924.303 652.136 985.304 645.184 1039.15 641.575C1038.16 702.603 1031.13 761.65 1018.8 816.359C974.181 819.42 924.682 825.182 872.679 833.372ZM858.837 660.613C855.625 633.525 851.921 606.014 847.719 578.251C842.854 546.1 837.453 514.506 831.6 483.73C901.604 472.776 966.977 465.4 1024.51 461.658C1025.22 465.592 1025.92 469.536 1026.58 473.501C1035.95 529.378 1039.95 585.376 1039.17 639.834C984.242 643.469 923.112 650.518 858.837 660.613ZM608.027 528.038C614.353 558.718 621.406 589.984 629.17 621.561C635.872 648.828 642.94 675.673 650.305 701.938C587.035 717.125 527.839 733.914 475.673 751.503C454.183 701.457 436.53 648.164 423.882 592.936C422.983 589.018 422.124 585.107 421.283 581.198C475.891 562.718 539.137 544.609 608.027 528.038ZM650.784 703.648C667.086 761.635 684.839 816.707 703.392 866.92C652.196 879.18 604.24 892.73 561.823 906.925C529.564 861.045 500.55 809.139 476.359 753.102C527.51 735.904 586.553 719.067 650.784 703.648ZM704.01 868.589C719.184 909.544 734.885 947.246 750.752 980.609C751.783 982.779 752.809 984.894 753.837 987.016C717.64 995.623 684.42 1004.95 655.395 1014.51C622.756 984.783 591.533 948.983 562.844 908.395C604.405 894.552 652.154 881.008 704.01 868.589ZM653.535 1015.12C628.216 1023.52 606.174 1032.08 588.224 1040.47C545.302 1014.84 504.943 982.689 468.534 945.275C493.749 933.322 525.084 921.035 561.153 908.962C589.782 949.52 620.949 985.338 653.535 1015.12ZM613.844 1031.57C626.559 1026.51 640.4 1021.5 655.164 1016.6C680.124 1039.23 705.903 1058.33 732.02 1073.27C717.094 1078.16 703.933 1083.15 692.991 1088.07C657.676 1076.84 623.229 1061.16 590.263 1041.67C597.455 1038.35 605.314 1034.97 613.844 1031.57ZM690.373 1089.27C679.598 1094.26 671.158 1099.17 665.498 1103.8C625.267 1096.1 585.815 1083.77 547.835 1066.95C556.252 1059.48 569.824 1051.27 587.996 1042.72C621.2 1062.49 655.525 1078.07 690.373 1089.27ZM663.781 1105.27C660.674 1108.09 658.634 1110.78 657.773 1113.33C616.737 1107.55 576.551 1096.96 537.907 1081.78C538.359 1077.68 541.257 1073.13 546.42 1068.25C584.307 1085.09 623.652 1097.49 663.781 1105.27ZM1000.19 1038.6C1034.33 1016.11 1065.97 989.639 1094.57 959.626C1101.21 962.169 1105.62 965.264 1107.6 968.876C1077.67 997.649 1044.55 1022.76 1008.82 1043.76C1007.06 1041.73 1004.15 1040.01 1000.19 1038.6ZM1095.92 958.193C1121.25 931.428 1144.18 901.899 1164.28 869.84C1172.84 856.186 1180.74 842.255 1188.04 828.098C1197 831.972 1202.73 836.738 1204.78 842.409C1196.54 857.306 1187.54 871.906 1177.76 886.147C1157.39 915.82 1134.31 943.047 1108.92 967.625C1106.7 963.913 1102.29 960.768 1095.92 958.193ZM1162.79 868.899C1142.62 901.07 1119.59 930.689 1094.15 957.504C1083.36 953.543 1067.59 951.04 1047.79 949.998C1069.25 921.062 1088.44 889.176 1104.97 854.662C1111 842.078 1116.58 829.295 1121.76 816.347C1149.9 817.915 1171.98 821.598 1186.41 827.41C1179.15 841.48 1171.29 855.326 1162.79 868.899ZM1122.38 814.769C1144.55 758.861 1158.74 699.855 1164.66 639.944C1198.86 642.07 1225.41 646.84 1242.32 654.267C1233.63 713.49 1215.09 771.468 1187.12 826.046C1172.74 820.239 1150.93 816.426 1122.38 814.769ZM1120.3 814.655C1107.36 813.958 1093.11 813.692 1077.54 813.882C1059.7 814.093 1040.64 814.891 1020.59 816.237C1032.9 761.504 1039.91 702.459 1040.9 641.453C1087.57 638.38 1128.8 637.825 1162.69 639.814C1156.59 700.716 1142.07 759.803 1120.3 814.655ZM1107.16 637.056C1086.36 637.312 1064.2 638.212 1040.92 639.719C1041.71 585.197 1037.7 529.136 1028.32 473.208C1027.66 469.308 1026.98 465.421 1026.28 461.546C1076.03 458.368 1119.86 457.918 1155.69 460.216C1166.53 519.732 1168.57 579.778 1162.86 638.2C1146.17 637.202 1127.58 636.809 1107.16 637.056ZM1027.64 293.78C1011.74 294.144 995.089 294.879 977.802 295.948C958.573 250.475 935.494 209.882 909.298 176.082C907.2 173.378 905.082 170.735 902.953 168.121C941.32 165.893 975.096 165.783 1002.44 167.868C1009.11 173.969 1015.66 180.327 1022.05 186.961C1052.33 218.364 1078.33 254.717 1099.6 295.035C1078.65 293.594 1054.59 293.161 1027.64 293.78ZM907.905 177.163C933.901 210.703 956.817 250.967 975.936 296.065C920.397 299.571 858.289 306.623 793.062 316.792C782.794 279.857 771.895 245.629 760.562 214.944C756.68 204.429 752.791 194.492 748.906 185.078C803.832 176.614 855.447 170.97 900.775 168.255C903.167 171.17 905.551 174.126 907.905 177.163ZM748.188 183.334C734.829 151.181 721.533 125.617 708.65 107.173C747.88 101.183 784.818 97.1972 817.159 95.3584C845.98 111.793 873.677 135.663 899.158 166.298C854.204 169.09 803.012 174.802 748.188 183.334ZM746.295 183.631C718.037 188.058 688.837 193.226 659.029 199.133C629.224 205.039 600.253 211.399 572.44 218.088C572.535 183.666 575.05 154.719 580.023 132.575C600.366 127.63 621.494 122.962 643.086 118.683C664.681 114.403 685.989 110.662 706.673 107.473C719.715 126.047 733.08 151.847 746.295 183.631ZM570.576 218.534C516.648 231.553 467.142 245.801 424.514 260.368C436.382 222.331 452.887 189.705 473.255 163.52C503.867 152.883 539.538 142.473 578.081 133.051C573.206 155.014 570.664 183.717 570.576 218.534ZM570.578 220.42C570.577 230.601 570.77 241.27 571.192 252.47C572.417 285.158 575.399 320.955 579.989 359.016C515.817 374.49 455.711 391.66 403.031 409.6C403.507 360.619 409.335 314.655 420.576 273.735C421.594 270.035 422.664 266.397 423.768 262.792C466.71 248.012 516.583 233.544 570.578 220.42ZM418.875 273.268C407.55 314.504 401.696 360.834 401.265 410.2C385.014 415.756 369.462 421.385 354.744 427.059C329.438 436.813 307.232 446.445 288.317 455.814C292.605 410.426 302.781 366.9 318.792 326.324C322.171 317.757 325.794 309.392 329.636 301.211C354.118 288.856 385.387 276.072 421.704 263.5C420.731 266.725 419.78 269.969 418.875 273.268ZM419.603 581.773C420.428 585.622 421.28 589.475 422.163 593.329C434.824 648.608 452.496 701.96 474.013 752.07C451.924 759.546 431.096 767.165 411.775 774.859C392.797 782.42 375.767 789.877 360.712 797.161C333.156 745.332 312.143 689.051 299.459 629.895C331.711 614.103 372.395 597.806 419.603 581.773ZM474.696 753.656C498.876 809.675 527.877 861.583 560.122 907.487C541.08 913.896 523.158 920.426 506.587 927.026C492.125 932.787 479.039 938.472 467.349 944.048C426.308 901.65 390.345 852.562 361.48 798.596C392.054 783.825 430.379 768.614 474.696 753.656ZM465.47 944.947C439.712 957.366 421 969.21 409.923 980.062C363.25 940.283 324.001 893.75 293.385 842.323C306.177 829.004 328.911 814.472 359.71 799.46C388.036 852.584 423.653 901.72 465.47 944.947ZM466.647 946.169C476.366 956.166 486.4 965.855 496.772 975.189C525.215 1000.79 555.118 1022.95 585.994 1041.51C568.083 1050.03 554.462 1058.35 546.004 1066.13C512.256 1051.04 479.668 1032.45 448.758 1010.4C435.718 1001.1 423.178 991.29 411.104 981.057C422.22 970.177 441.226 958.359 466.647 946.169ZM447.733 1011.84C478.539 1033.81 511.004 1052.36 544.628 1067.45C539.725 1072.26 536.844 1076.84 536.211 1081.12C503.361 1068.08 471.639 1051.72 441.497 1032.05C427.026 1022.62 413.137 1012.56 399.847 1001.93C399.574 995.904 403.057 989.312 409.862 982.315C422.003 992.612 434.618 1002.48 447.733 1011.84ZM775.345 1118.62C785.796 1117.8 796.256 1116.64 806.716 1115.21C795.789 1117.26 784.847 1118.96 773.898 1120.28C774.213 1119.76 774.705 1119.2 775.345 1118.62ZM871.852 1102.3C882.068 1099.64 892.182 1096.71 902.158 1093.49C902.972 1093.78 903.641 1094.11 904.13 1094.47C893.502 1097.43 882.736 1100.03 871.852 1102.3ZM1262.83 673.339C1253.83 731.352 1234.69 787.749 1205.85 840.433C1203.29 835.088 1197.52 830.504 1188.75 826.72C1216.7 772.16 1235.25 714.216 1243.99 655.026C1254.6 659.992 1261.06 666.095 1262.83 673.339ZM1242.57 652.666C1225.63 645.356 1199.43 640.495 1164.82 638.311C1170.52 579.146 1168.18 519.116 1157.52 460.333C1193.48 462.754 1221.23 467.998 1238.6 476.086C1249.75 534.736 1250.95 594.289 1242.57 652.666ZM1237.84 471.966C1237.99 472.71 1238.11 473.458 1238.26 474.209C1220.75 466.366 1193.42 461.116 1157.2 458.681C1156.69 455.871 1156.18 453.059 1155.62 450.261C1144.66 394.956 1126.75 343.374 1102.6 296.956C1135.96 299.403 1161.57 304.509 1177.35 312.315C1206.14 361.018 1226.46 414.527 1237.84 471.966ZM1064.48 181.413C1097.83 208.284 1127.44 239.563 1152.95 274.944C1161.1 286.256 1168.73 297.882 1175.87 309.79C1159.75 302.505 1134.67 297.579 1101.68 295.185C1080.24 254.331 1053.95 217.511 1023.32 185.736C1017.44 179.633 1011.43 173.759 1005.31 168.107C1032.09 170.339 1052.42 174.749 1064.48 181.413ZM889.5 95.5034C929.028 111.696 966.22 135.271 1000 165.674C972.695 163.694 939.278 163.88 901.336 166.165C876.172 135.709 848.822 111.848 820.336 95.1784C847.109 93.7587 870.604 93.845 889.5 95.5034ZM746.178 70.4619C769.072 73.6222 791.832 81.4246 813.97 93.5947C782.195 95.5318 746.07 99.5395 707.472 105.513C697.966 92.1957 688.696 82.7698 679.801 77.4503C703.863 73.8346 726.433 71.4627 746.178 70.4619ZM636.416 85.0224C650.247 82.2815 663.857 79.8937 677.041 77.8709C686.208 82.7431 695.767 92.2311 705.517 105.819C685.171 108.994 664.16 112.708 642.743 116.952C621.33 121.196 600.483 125.776 580.461 130.602C584.293 114.325 589.509 101.917 596.117 93.911C609.099 90.7446 622.595 87.7613 636.416 85.0224ZM529.308 113.471C547.981 106.848 569.781 100.416 593.412 94.5736C587.222 102.886 582.244 115.132 578.538 131.067C540.587 140.267 505.653 150.344 475.531 160.673C491.334 141.002 509.376 125.117 529.308 113.471ZM406.431 191.247C423.265 182.508 444.964 173.468 470.25 164.569C450.278 190.841 434.097 223.328 422.453 261.075C386.507 273.433 355.542 286.008 331.045 298.254C350.681 257.266 376.068 221.289 406.431 191.247ZM231.344 457.577C241.42 415.156 256.862 374.96 277.442 337.403C286.04 326.642 303.15 314.81 327.068 302.528C323.571 310.078 320.259 317.796 317.151 325.676C300.952 366.736 290.695 410.798 286.451 456.746C256.876 471.536 235.564 485.656 223.441 498.542C225.497 484.809 228.12 471.147 231.344 457.577ZM228 672.085C216.62 614.659 214.998 557.462 223.034 501.471C234.632 488.237 256.36 473.75 286.27 458.756C281.664 510.867 284.769 565.371 295.726 620.665C296.281 623.464 296.884 626.257 297.479 629.051C264.927 645.117 241.67 660.391 228.472 674.323C228.32 673.574 228.149 672.835 228 672.085ZM228.867 676.192C241.843 662.082 265.492 646.656 297.82 630.698C310.379 689.112 331.108 745.491 358.946 798.016C327.781 813.235 305.413 827.714 292.549 840.936C262.53 790.164 240.927 734.654 228.867 676.192ZM292.13 843.661C322.782 895.039 362.027 941.537 408.668 981.308C402.005 988.158 398.425 994.594 398.099 1000.51C351.352 962.813 312.146 917.979 281.697 867.783C280.57 860.412 284.218 852.297 292.13 843.661ZM552.702 1096.23C550.16 1095.33 547.63 1094.37 545.1 1093.43C541.048 1090.89 538.645 1088 538.002 1084.75C537.929 1084.39 537.892 1084.02 537.865 1083.66C576.401 1098.74 616.466 1109.28 657.371 1115.06C657.27 1115.84 657.279 1116.61 657.429 1117.37C657.67 1118.59 658.23 1119.73 659.082 1120.79C622.864 1116.67 587.207 1108.48 552.702 1096.23ZM771.761 1122.31C771.762 1122.31 771.76 1122.32 771.761 1122.33C771.97 1123.38 772.698 1124.27 773.859 1125.01C744.32 1129.83 714.645 1130.83 685.109 1127.95C676.496 1126.95 669.859 1125.35 665.439 1123.24C700.564 1126.75 736.177 1126.44 771.761 1122.31ZM826.57 1114.14C825.913 1114.44 825.263 1114.76 824.602 1115.05C813.456 1119.92 802.127 1123.59 790.716 1126.14C787.089 1126.09 783.968 1125.88 781.413 1125.51C796.518 1122.73 811.58 1118.92 826.57 1114.14ZM825.308 1116.67C829.174 1114.98 832.983 1113.12 836.767 1111.19C831.742 1117.82 826.205 1122.19 820.156 1124.03C812.131 1125.1 804.871 1125.75 798.604 1126.01C807.585 1123.6 816.503 1120.51 825.308 1116.67ZM841.608 1120.46C836.354 1121.51 831.301 1122.39 826.472 1123.13C831.152 1120.34 835.514 1115.99 839.558 1110.14C845.527 1114 851.225 1116.37 856.608 1117.16C851.866 1118.31 846.861 1119.42 841.608 1120.46ZM862.799 1115.58C856.5 1116.19 849.715 1114.26 842.538 1110.04C846.778 1110.39 851.008 1110.66 855.221 1110.74C864.828 1110.94 874.253 1110.39 883.478 1109.2C877.58 1111.34 870.626 1113.51 862.799 1115.58ZM890.819 1106.31C879.298 1108.3 867.42 1109.22 855.257 1108.98C854.534 1108.96 853.812 1108.91 853.091 1108.89C868.77 1107.59 884.151 1105.37 899.179 1102.18C896.957 1103.49 894.152 1104.87 890.819 1106.31ZM989.485 1067.52C963.173 1081.54 935.246 1091.99 905.97 1098.83C906.762 1097.7 907.095 1096.6 906.886 1095.55C906.885 1095.54 906.88 1095.54 906.879 1095.53C941.356 1085.78 974.402 1072.48 1005.53 1055.84C1002.3 1059.43 996.895 1063.38 989.485 1067.52ZM1108.65 971.669C1109.29 974.907 1108.17 978.5 1105.4 982.395C1103.42 984.234 1101.44 986.074 1099.43 987.885C1072.21 1012.37 1042.38 1033.53 1010.47 1051.15C1010.85 1049.85 1010.93 1048.58 1010.69 1047.37C1010.54 1046.61 1010.25 1045.89 1009.86 1045.2C1045.47 1024.26 1078.49 999.244 1108.36 970.596C1108.48 970.951 1108.58 971.303 1108.65 971.669Z" fill="white" fill-opacity="0.6"/>
<path d="M411.214 209.21C411.469 210.091 413.115 209.459 414.76 208.687C417.937 207.347 421.074 203.875 421.665 202.496C419.277 203.12 411.681 207.613 411.214 209.21ZM459.886 180.754C465.016 178.525 472.557 175.245 472.463 173.316C471.193 173.909 469.993 174.343 468.834 174.749C471.498 173.694 474.124 172.34 476.044 170.934C475.163 170.989 474.643 170.702 471.849 171.621C466.967 173.502 453.241 179.129 452.678 181.198C453.066 182.32 456.296 182.024 459.886 180.754ZM462.557 174.728C465.942 173.325 469.093 172.297 472.593 170.904C475.265 169.623 477.022 168.614 478.999 167.67C477.524 166.363 474.362 167.334 469.267 169.149C466.225 170.318 452.632 177.13 452.232 178.802C453.979 177.992 454.947 177.009 456.855 176.266C459.165 175.572 459.769 175.709 462.557 174.728ZM441.552 191.343C439.511 192.067 438.219 192.495 434.125 194.435C434.076 195.077 434.629 194.834 435.705 194.666C435.897 194.625 435.347 194.93 435.152 194.888C433.444 195.786 431.416 196.88 430.588 197.807C431.242 197.297 431.997 197.545 432.788 197.283C432.386 197.218 432.069 197.64 431.666 197.702C431.666 197.702 429.571 198.275 427.881 199.32C427.825 199.978 427.99 200.117 427.738 200.726C428.536 200.462 429.189 200.389 429.985 200.119C429.346 200.636 428.363 200.493 427.717 201.007C425.02 201.83 424.264 203.154 422.092 204.336C423.277 204.945 422.031 204.436 421.947 205.764C421.568 206.743 423.45 206.812 425.124 205.757C426.75 205.312 429.959 204.257 432.918 203.13C435.857 202.154 438.527 200.416 442.541 198.548C442.61 197.765 443.884 196.978 445.152 196.287C445.456 197.665 447.164 196.795 448.955 196.957C445.757 197.992 442.825 198.745 442.399 200.688C442.359 201.477 446 200.797 448.814 199.597C454.737 197.4 459.282 194.865 464.233 192.299C464.933 192.129 480.163 184.822 480.428 184.816C480.812 184.694 494.943 180.386 496.438 179.545C498.739 178.572 504.582 174.149 504.615 172.297C504.628 170.713 502 170.869 498.88 171.803C495.784 172.771 494.607 174.579 492.233 175.169C487.514 177.124 483.187 176.881 483.034 174.904C482.887 174.673 482.868 174.758 483.065 173.693C481.501 174.294 480.034 174.367 478.525 174.68C475.829 176.371 470.112 179.18 469.813 180.79C470.019 181.954 473.951 180.331 475.74 180.016C475.266 180.335 475.79 180.677 475.696 181.248C475.102 181.636 473.597 182.3 473.289 182.487C474.287 182.557 475.366 181.942 478.098 181.05C477.022 182.124 475.848 183.025 472.767 184.194C461.862 187.905 457.855 186.545 450.58 189.062C448.915 189.856 446.841 190.327 445.295 191.178C444.752 189.675 442.437 191.002 441.552 191.343ZM435.771 198.383C436.459 198.271 437.174 198.157 437.727 197.724C437.177 198.157 436.474 198.366 435.771 198.383ZM226.966 661.321C228.002 662.525 227.147 664.364 229.219 664.115C229.618 664.036 229.89 663.227 229.89 663.227C228.872 661.762 228.909 660.599 226.966 661.321ZM221.911 659.427C222.031 660.366 221.957 661.892 223.194 661.756C224.934 660.606 224.842 659.861 225.141 658.428C222.88 659.477 224.295 658.659 221.911 659.427ZM232.506 671.535C232.733 673.163 232.994 674.124 233.311 676.184C233.466 677.144 233.709 678.403 234.941 678.223C237.823 677.75 236.68 676.824 238.409 675.623C238.294 674.901 238.113 674.023 237.997 673.294C236.288 671.496 234.583 671.011 232.506 671.535ZM392.549 216.729C394.351 216.077 394.82 214.859 396.142 214.284C398.351 213.235 399.296 213.216 401.957 211.487C402.43 212.033 403.697 212.007 405.345 211.199C408.038 210.233 409.317 208.409 410.084 207.086C413.533 205.506 416.801 202.588 417.74 200.908C419.912 200.299 418.982 202.655 422.86 201.082C426.142 198.853 429.223 196.412 432.668 194.028C432.744 192.979 431.243 194.285 431.095 192.951C432.609 192.212 434.188 191.189 434.127 190.263C434.242 187.899 421.017 195.841 421.01 195.843C419.136 196.893 419.063 196.492 417.187 197.409C411.165 200.099 409.892 203.104 405.703 205.856C401.951 208.674 398.941 210.286 395.47 212.485C394.749 213.155 390.773 216.097 390.727 216.363C390.447 216.633 391.832 215.968 392.549 216.729ZM218.2 657.22C218.308 657.199 218.401 657.17 218.485 657.15C218.016 657.707 217.973 657.136 217.424 657.821C217.424 657.821 217.591 659.763 219.245 659.587C219.768 658.924 219.955 658.666 219.895 658.027C219.539 657.49 219.672 656.708 219.603 656.071C218.363 656.214 219.013 656.198 218.2 657.22ZM444.215 185.726C445.742 185.033 446.772 184.379 447.48 183.342C446.076 183.863 440.174 183.891 439.858 186.234C439.806 186.891 442.024 186.42 444.215 185.726ZM444.408 189.571C446.095 189.082 447.575 188.307 449.43 187.542C449.984 187.433 449.624 186.913 449.517 186.355C446.741 187.485 444.278 188.451 441.565 189.579C441.447 190.759 443.305 190.068 444.408 189.571ZM708.825 142.293C713.824 141.636 715.836 140.464 718.79 139.861C722.056 139.769 723.51 140.001 727.291 139.474C729.412 139.116 731.051 138.419 731.783 137.241C726.431 136.892 719.746 135.595 712.173 136.642C706.211 137.293 704.36 136.865 698.173 137.835C696.322 138.314 693.497 138.769 693.863 140.032C694.02 141.481 697.135 141.049 699.936 141.306C698.276 142.911 703.321 143.092 708.825 142.293ZM644.928 142.383C652.348 141.24 659.527 139.712 666.849 138.355C669.486 137.587 669.66 136.938 673.421 135.925C674.314 136.458 675.66 137.14 679.25 136.464C689.022 134.918 701.108 133.233 701.134 129.59C701.134 129.59 699.604 130.093 697.551 130.012C697.868 129.558 698.332 129.414 698.652 128.957C699.31 128.907 700.216 128.696 700.833 128.458C696.104 126.682 689.306 127.368 678.359 129.186C663.823 131.378 660.067 134.495 644.818 137.59C637.984 138.965 632.611 139.303 625.891 140.191C624.887 140.44 621.664 142.47 621.484 140.625C621.388 140.244 622.76 139.884 623.29 139.758C619.107 139.371 612.921 142.115 610.841 140.197C614.477 139.56 618.007 138.78 621.584 137.864C618.892 137.146 606.964 140.662 608.532 137.818C607.151 138.218 605.174 138.701 603.742 138.904C602.696 139.565 601.363 140.247 598.512 140.872C589.412 142.883 587.002 140.046 575.157 143.251C572.125 143.971 567.376 145.127 567.455 146.654C567.973 147.711 583.863 145.81 586.732 145.115C588.628 144.809 590.309 143.932 591.928 142.904C596.707 143.641 597.915 144.54 603.253 145.226C602.302 145.513 600.004 146.611 600.25 147.497C600.75 150.094 614.125 148.684 620.392 147.572C622.473 147.012 626.767 144.966 627.724 144.298C628.69 144.353 630.03 143.669 631.003 143.631C630.677 145.893 639.189 144.262 644.928 142.383ZM252.899 381.066C253.79 379.73 254.566 378.522 255.052 377.677C254.738 377.69 254.561 377.715 254.445 377.734C253.935 378.847 253.404 379.947 252.899 381.066ZM573.137 170.142C571.681 170.346 567.847 171.028 566.889 171.208C566.744 169.894 567.688 170.968 567.53 169.446C567.32 168.015 559.779 171.509 557.632 171.928C559.357 170.83 565.7 168.01 565.788 165.901C565.539 165.3 563.707 165.326 563.023 165.598C559.288 166.76 556.141 167.327 552.422 168.433C546.608 170.218 540.874 171.309 536.765 174.06C536.36 174.252 535.102 175.011 534.985 175.393C535.103 177.106 539.904 175.224 543.473 174.337C543.659 175.509 543.771 175.933 543.682 177.114C542.6 177.628 540.894 177.899 539.733 178.227C535.374 179.523 531.267 179.48 527.881 180.386C527.702 181.114 527.838 181.41 527.984 182.148C535.818 182.932 543.564 180.132 551.65 181.162C553.257 181.508 553.8 182.314 557.724 181.396C559.793 180.79 560.584 179.413 562.947 178.382C571.802 175.028 572.515 176.415 573.137 170.142ZM604.597 116.276C605.791 115.94 607.248 115.244 608.449 114.922C610.945 114.258 613.729 113.598 616.301 113.193C613.17 113.986 611.738 114.748 609.13 115.946C609.619 116.075 612.725 115.547 613.943 115.435C618.956 114.129 618.906 113.004 624.267 111.966C625.85 111.603 627.831 111.161 629.561 111.012C622.739 112.901 616.299 114.157 613.559 116.566C615.451 116.082 620.755 115.126 625.974 113.916C622.533 114.717 620.781 115.469 618.96 116.167C620.917 116.383 628.328 115.513 633.784 114.597C635.925 114.144 637.698 113.61 639.491 112.749C640.519 112.545 641.912 112.29 642.956 112.083C641.547 113.547 648.46 112.401 653.908 111.477C655.824 111.146 656.762 110.229 659.091 109.838C661.621 109.452 663.464 109.481 668.581 108.787C677.343 106.843 682.991 106.012 688.19 104.078C689.401 103.968 690.969 103.619 692.182 103.505C689.417 104.812 684.921 106.016 679.898 107.313C675.195 108.217 671.134 108.586 666.511 109.488C666.046 109.837 664.762 110.057 664.813 110.493C664.964 111.134 673.904 110.972 675.258 110.999C667.714 112.283 665.148 110.837 658.071 111.442C652.687 111.964 646.986 113.308 643.876 113.907C642.686 114.139 641.025 114.233 639.869 114.687C640.834 115.006 641.1 115.315 644.047 114.749C641.26 115.294 637.299 115.51 637.486 116.597C638.001 118.52 655.549 114.67 656.449 116.709C656.9 119.769 648.747 119.624 642.037 121.428C638.105 122.59 636.4 123.771 634.399 125.444C634.492 125.875 634.47 125.904 634.559 126.337C635.754 126.075 637.407 125.59 638.632 125.533C639.342 125.073 640.476 124.876 641.227 124.481C642.418 124.238 644.091 123.938 645.294 123.7C645.847 126.296 654.3 124.902 658.299 125.178C656.864 125.417 654.839 125.815 653.396 126.069C648.081 126.275 644.765 125.358 636.139 127.19C633.117 127.838 629.449 127.764 629.496 129.312C629.974 131.245 635.507 129.776 638.873 129.78C633.467 132.335 619.298 133.755 619.575 136.961C619.664 137.288 620.59 137.456 622.391 137.008C623.576 136.713 624.871 136.175 625.531 135.538C635.429 134.617 642.5 133.655 651.791 131.958C656.016 131.177 657.41 130.092 659.84 129.678C666.801 128.541 673.53 127.222 680.44 126.165C685.945 125.176 683.402 126.981 689.789 125.887C696.122 125.268 711.198 121.918 710.986 120.049C710.905 119.059 707.45 119.966 706.726 120.003C704.7 120.128 702.138 120.565 699.882 120.97C699.423 118.438 710.806 118.555 710.325 115.863C710.274 115.202 708.752 115.672 708.105 115.013C712.782 114.761 717.059 113.868 721.662 113.269C726.024 112.06 727.4 109.804 732.71 108.556C730.706 107.824 727.766 107.679 724.364 107.742C729.752 107.279 732.793 107.33 731.721 105.602C729.18 105.972 726.777 106.16 724.234 106.446C728.007 105.315 734.747 104.215 740.535 103.11C744.694 102.472 750.759 102.641 754.236 101.632C761.704 99.4143 766.304 96.6995 776.567 94.9046C785.457 93.9058 799.422 92.2172 804.52 90.5955C798.176 90.7703 788.373 91.5849 785.38 91.0884C798.56 88.5573 810.805 89.6595 819.975 87.9125C821.665 87.3666 826.38 88.2774 825.648 87.0449C824.482 85.4342 812.219 86.3353 808.786 85.6379C807.191 85.3879 806.975 84.9175 804.017 84.7201C802.544 84.52 800.872 84.324 799.283 84.3542C792.804 84.9317 786.342 85.5549 779.786 86.3833C781.683 85.9019 782.424 86.0994 784.051 85.5381C778.219 84.6622 756.643 86.0174 750.374 86.5005C748.071 86.4192 745.806 86.903 743.145 87.0859C740.978 87.3744 739.236 86.9118 735.227 87.3653C731.583 87.7326 731.063 88.8865 727.29 89.1983C723.344 89.9554 722.014 88.9184 717.14 89.5439C715.993 89.9079 714.82 90.2988 714.166 90.3156C704.056 91.7992 694.292 93.0099 684.065 94.2774C681.507 94.9143 679.528 94.955 678.269 95.9953C674.746 97.1329 677.652 96.1281 673.044 96.9428C665.303 98.2973 662.511 100.215 660.586 101.967C658.094 102.351 647.719 102.819 642.641 103.758C637.168 104.839 641.092 105.584 632.413 107.219C632.496 107.656 631.364 107.951 630.412 108.164C628.669 108.552 626.75 108.868 624.637 109.354C617.072 110.758 600.579 115.732 598.843 117.608C600.615 117.437 602.519 116.853 604.597 116.276ZM557.601 193.803C556.71 194.197 551.663 194.895 551.672 195.951C552.069 196.02 572.214 194.162 575.879 193.21C578.894 192.363 579.809 191.047 582.547 189.706C580.623 188.593 569.12 187.267 564.839 188.263C559.371 189.477 560.764 192.304 557.601 193.803ZM819.559 93.0431C817.153 93.3475 814.96 93.0195 812.76 92.6646C808.234 94.0712 797.614 95.7469 789.15 97.1924C787.928 97.0549 784.106 97.51 784.392 98.4763C785.177 100.454 799.667 98.8799 804.401 98.8555C805.616 101.37 803.117 101.844 799.063 102.76C793.734 103.806 784.195 103.387 776.995 104.617C772.114 105.261 769.665 106.586 764.91 107.251C759.142 108.278 749.626 108.378 750.369 110.638C751.373 112.109 777.464 111.718 778.463 111.686C781.661 111.27 784.526 111.352 787.772 110.997C788.984 111.14 789.667 110.692 790.075 110C793.628 109.707 796.893 109.805 800.613 109.366C799.979 110.792 800.441 110.732 797.971 111.383C792.811 111.756 788.001 111.96 782.855 112.386C781.476 112.997 781.093 113.21 778.297 113.423C776.269 113.558 773.728 113.907 771.606 113.972C769.667 114.135 764.31 114.557 764.155 116.398C769.505 116.758 767.576 116.043 773.583 115.566C776.764 115.136 780.436 116.149 784.881 116.16C783.99 117.356 782.432 117.236 780.036 117.964C784.018 118.7 792.558 119.183 798.287 118.793C800.183 118.361 800.088 118.911 801.632 118.302C800.764 118.176 799.577 117.908 798.701 117.776C799.929 117.61 800.832 117.385 803.869 117.107C807.09 116.876 809.712 117.436 812.078 117.357C815.677 116.855 816.731 116.003 820.003 115.857C822.942 115.672 825.2 115.755 827.84 115.555C857.29 114.654 876.405 120.376 887.656 128.371C887.923 128.975 887.905 129.257 888.349 129.742C890.57 130.135 894.322 129.711 895.327 131.417C896.234 133.69 890.728 133.375 891.855 135.36C892.377 137.27 894.778 137.174 899.365 137.08C902.848 136.826 902.406 135.764 904.755 135.601C912.848 136.064 917.315 140.205 925.222 141.604C925.504 142.388 925.837 143.113 923.561 142.935C917.722 142.739 913.438 141.078 908.176 141.042C905.992 140.902 906.081 140.821 903.732 140.949C906.161 143.687 924.045 144.881 932.147 145.936C931.295 148.692 928.439 149.255 928.252 152.353C924.474 151.442 924.577 151.605 921.479 152.37C921.567 152.352 921.548 152.486 921.576 152.576C917.166 154.181 916.862 156.03 914.255 158.065C914.575 159.024 914.841 159.587 915.345 160.468C916.892 160.066 918.457 160.199 920.359 160.507C920.176 161.998 918.534 161.898 919.054 163.124C920.246 165.964 927.625 167.148 930.06 169.277C931.239 170.214 933.069 172.571 934.148 172.878C939.057 174.038 938.648 171.212 943.458 173.345C941.679 174.081 940.001 173.893 940.682 175.343C942.108 178.779 953.541 185.92 959.485 187.732C960.163 188.139 960.655 189.398 962.197 190.038C966.879 191.086 968.549 190.737 971.597 193.388C974.4 193.423 977.611 192.133 980.933 192.237C986.934 192.668 988.663 197.316 994.455 197.793C995.908 197.61 995.954 197.133 998.676 197.241C999.216 197.999 1000.33 198.264 1001.95 198.519C1007.94 198.684 1002.59 193.145 1007.13 192.128C1006.09 190.992 1005.1 187.972 1004.2 186.211C1002.56 182.841 1012.67 183.172 1011.26 179.759C1010.33 178.711 1008.05 177.912 1007.49 177.217C1007.39 176.583 1007.61 176.684 1008.36 176.212C1008.28 175.763 1007.64 175.593 1007.42 175.193C1005.49 172.078 1017.39 174.123 1020.62 172.963C1022.93 172.092 1020.67 171.502 1023.31 171.264C1023.69 172.02 1024 172.36 1024.39 173.109C1025.56 173.44 1026.24 173.169 1027.37 173.604C1030.71 172.944 1037.53 174.502 1040.21 173.552C1044.08 172.206 1033.73 166.416 1036.35 165.864C1038.48 165.47 1038.51 165.819 1039.95 165.394C1039.14 164.778 1041.1 164.944 1042.59 164.86C1043.8 165.195 1044.96 165.466 1046.11 165.744C999.377 132.515 947.36 106.836 892.038 90.025C891.004 89.9632 890.337 90.1057 890.618 90.7105C891.469 90.9814 892.212 91.7515 893.315 92.1056C892.098 92.0272 891.081 92.1582 889.918 91.7844C885.114 91.0106 881.423 90.7332 877.941 89.4831C877.063 89.6641 876.898 89.7003 876.021 89.8813C876.389 90.5711 877.37 90.5734 877.953 91.1078C873.38 90.8576 871.488 89.0188 867.011 88.7636C860.716 88.549 856.615 89.1402 850.047 89.3207C840.73 88.963 837.803 89.5785 827.873 89.8801C819.891 90.2361 828.555 92.8351 819.559 93.0431ZM1088.76 676.634C1087.63 676.956 1085.76 680.848 1084.79 677.138C1082.98 677.645 1080.81 676.55 1079.26 675.872C1079.19 676.181 1078.57 676.037 1078.28 676.152C1074.88 676.838 1073.92 680.571 1074.3 685.037C1074.78 687.755 1081.58 691.2 1085.46 690.292C1088.58 689.336 1090.9 681.509 1090.8 678.865C1090.67 678.371 1089.67 676.417 1088.76 676.634ZM922.345 146.702C915.505 145.671 912.443 143.191 905.907 142.915C903.487 143.124 900.792 143.282 901.346 144.817C902.37 146.017 905.622 148.138 908.008 148.358C909.752 147.96 911.468 148.378 913.486 148.436C917.63 148.223 922.54 148.378 922.345 146.702ZM529.852 197.994C534.762 196.62 535.632 196.778 540.453 194.108C534.902 193.802 513.426 198.128 512.808 194.511C512.577 191.717 505.798 191.503 505.498 187.739C505.405 186.566 510.906 184.277 510.982 182.607C510.977 180.629 506.65 181.659 502.053 183.206C497.875 183.999 494.62 186.06 494.535 187.385C494.971 187.298 494.575 187.925 494.807 188.315C490.63 190.44 492.249 189.019 487.811 190.644C485.952 191.114 483.337 192.42 483.357 193.477C483.204 194.657 487.301 197.943 489.181 198.709C488.083 199.422 487.926 199.906 485.934 200.628C481.025 202.075 483.09 198.988 481.637 198.197C480.06 197.153 476.924 197.261 473.501 198.122C471.79 198.528 469.947 199.35 468.133 200.03C468.914 200.532 468.87 200.312 469.333 201.44C466.841 202.743 464.647 203.778 462.031 204.782C460.284 203.392 458.103 203.072 451.336 205.72C447.677 207.162 445.938 209.096 443.958 210.356C442.876 209.738 443.493 207.036 440.163 208.363C431.544 211.614 411.447 223.642 410.77 228.946C410.801 229.618 414.816 229.139 417.334 228.18C420.189 226.581 421.768 226.13 425.279 224.989C422.897 227.028 416.292 228.509 416.064 230.955C415.899 233.613 428.233 227.844 433.673 225.691C437.691 224.181 441.916 222.476 446.202 220.884C448.584 219.913 450.62 220.044 452.19 219.729C449.328 221.059 447.929 221.48 444.255 222.898C434.319 226.807 427.254 230.041 421.448 234.264C423.684 234.875 427.082 235.646 432.255 233.743C435.49 232.342 442.753 229.339 445.342 229.322C448.387 229.197 445.393 232.046 449.692 230.484C456.898 227.868 464.11 225.124 471.935 222.674C477.026 218.991 483.287 218.042 490.146 214.384C493.829 212.357 492.087 211.522 496.756 210.248C504.228 207.646 507.978 210.178 518.345 207.045C525.011 205.285 530.946 203.223 533.346 200.656C532.327 200.444 531.051 200.809 530.544 199.845C529.705 200.292 526.637 201.153 526.499 200.102C526.407 199.179 527.839 198.804 529.852 197.994ZM949.61 286.218C949.616 286.603 950.744 286.162 951.231 286.086C954.481 285.755 955.818 282.749 957.302 280.008C959.972 281.553 959.637 285.468 961.74 285.266C962.448 285.417 963.297 285.305 963.991 285.529C964.352 286.196 965.088 287.979 967.172 287.792C969.851 287.591 970.617 285.053 969.837 282.624C969.474 280.774 967.47 280.963 966.608 278.526C965.253 279.452 966.24 279.84 963.567 279.966C963.225 278.687 961.08 277.734 960.656 276.887C960.511 276.136 962.609 275.418 962.327 273.709C961.37 273.526 960.11 274.148 959.602 274.495C958.505 271.51 958.327 269.813 957.702 267.92C956.538 268.583 953.188 268.874 949.974 268.432C949.118 268.949 947.99 269.232 947.01 269.458C946.75 269.281 946.7 268.781 946.683 268.468C945.244 268.631 943.292 268.761 941.831 268.818C941.616 268.295 941.399 267.575 941.248 267.026C941.656 266.709 941.877 266.25 942.277 265.929C941.123 265.528 939.066 265.022 937.62 265.259C935.939 265.354 936.225 266.513 934.053 267.162C933.83 266.64 933.637 265.915 933.482 265.366C933.84 261.798 938.844 259.06 937.503 254.812C937.18 254.138 935.93 253.043 934.968 252.991C930.583 253.302 930.136 256.634 928.766 259.429C926.211 264.511 925.857 273.59 919.058 277.127C919.399 277.639 920.862 278.02 921.589 277.95C921.908 278.14 921.935 278.792 921.961 279.17C922.155 279.159 918.017 282.791 918.123 283.536C918.343 284.062 920.34 285.438 921.559 285.333C924.721 285.178 925.535 283.719 929.815 283.3C932.987 282.805 934.901 284.152 938.538 284.014C940.197 283.7 941.952 283.356 943.693 282.519C945.914 284.441 948.851 282.846 951.56 282.724C951.208 284.017 949.072 284.036 949.61 286.218ZM514.276 163.42C513.325 163.532 512.14 163.914 511.289 164.371C511.862 164.264 511.696 164.828 512.162 165.196C512.299 165.161 511.929 165.186 511.792 165.135C511.851 165.929 511.77 166.036 511.832 166.825C513.912 166.898 515.488 166.624 518.138 165.8C518.626 165.711 518.528 166.191 518.922 166.51C519.986 165.962 521.562 165.674 522.721 165.339C522.529 166.108 524.032 166.172 525.823 165.55C530.997 164.149 539.747 160.499 544.519 159.11C545.485 159.06 546.69 158.701 547.647 158.515C546.298 159.437 541.431 160.612 541.268 161.79C541.144 162.212 541.456 162.333 541.33 162.761C540.437 163.181 539.719 163.741 539.569 164.246C539.787 165.412 546.382 162.818 547.922 162.383C548.584 162.09 554.316 160.438 558.362 159.021C557.134 156.793 560.05 154.476 559.939 152.438C559.984 150.454 559.308 150.321 554.544 151.504C552.781 152.25 551.36 152.845 549.434 153.69C544.426 154.669 541.932 154.966 537.796 156.06C536.173 156.466 534.943 156.696 533.217 157.505C534.936 158.683 537.747 157.444 542.236 156.203C542.249 157.17 542.355 157.301 542.363 158.265C535.813 160.428 533.838 158.422 528.177 160.342C528.408 160.816 527.995 160.986 528.228 161.467C529.298 161.926 531.408 161.709 533.404 161.552C525.463 164.497 521.651 161 514.276 163.42ZM584.161 130.089C582.844 131.152 580.867 131.635 578.234 132.543C578.45 133.172 578.5 133.127 580.401 132.739C582.243 132.107 583.228 131.655 585.861 130.778C586.714 131.288 587.004 131.652 589.658 130.813C592.792 130.178 593.363 129.355 597.52 128.334C601.572 127.496 604.397 126.789 608.467 126.411C604.919 127.382 588.53 130.847 588.499 132.604C589.053 134.16 596.013 132.714 600.683 131.588C600.049 132.076 599.308 132.303 597.281 132.926C598.493 134.008 603.682 132.807 608.159 131.804C612.176 131.053 614.808 130.595 614.331 128.665C616.914 128.73 621.808 128.484 624.221 127.914C624.115 127.453 624.171 127.414 624.056 126.955C625.478 126.618 627.473 126.278 628.899 125.943C627.803 125.626 626.772 125.56 625.161 125.197C626.31 124.541 627.043 124.128 628.18 123.432C629.15 124.477 629.212 124.792 632.74 124.019C636.479 123.528 639.356 120.339 644.953 119.215C646.87 118.857 650.147 118.432 651.072 117.69C651.709 117.149 651.252 117.338 651.11 116.572C647.419 117.23 640.443 117.618 637.785 118.154C637.307 118.263 633.469 120.022 633.218 119.059C633.082 118.408 635.051 118.384 634.91 117.617C634.719 116.864 631.695 117.966 631.501 117.217C631.217 115.927 631.636 115.879 627.836 116.734C627.051 116.921 625.969 117.097 625.177 117.282C625.641 117.426 626.123 117.604 626.592 117.49C626.705 117.956 626.644 117.933 626.754 118.4C625.804 118.623 624.507 118.845 623.553 119.069C620.891 118.947 622.584 117.634 618.46 118.128C614.343 118.803 612.002 119.928 607.871 120.317C603.738 121.049 604.366 118.812 599.06 119.297C594.241 119.971 589.188 121.117 582.582 122.538C583.085 124.014 587.241 122.332 590.528 122.043C589.152 122.157 587.469 122.916 586.102 123.127C581.277 123.946 579.296 124.943 576.3 126.24C576.406 126.208 578.85 126.786 579.778 126.486C581.234 126.32 584.275 125.075 587.068 124.651C586.455 125.152 585.66 125.612 584.28 126.071C582.36 126.382 580.968 126.324 577.194 127.36C575.09 128.089 571.2 128.397 571.31 129.612C571.77 130.726 579.276 128.687 582.89 128.22C582.89 128.22 581.578 129.257 580.599 129.37C578.084 129.848 574.004 130.462 572.723 130.678C571.51 130.76 569.983 131.281 568.837 131.701C570.499 134.53 575.08 132.602 584.161 130.089ZM550.926 135.252C552.18 134.74 553.878 134.355 555.208 134.048C555.251 133.168 555.188 133.255 555.115 132.373C553.55 133.006 549.601 133.76 546.308 134.884C546.483 136.459 549.27 135.176 550.926 135.252ZM555.627 140.717C555.565 143.345 561.111 141.518 564.366 141.776C563.682 142.049 561.896 142.698 561.855 143.36C562.053 144.924 570.653 141.652 580.052 138.633C578.955 137.427 579.842 137.328 579.817 136.402C579.323 133.681 570.951 138.921 570.54 136.704C567.59 137.788 562.587 138.354 561.434 137.795C558.776 138.845 555.449 139.41 555.627 140.717ZM507.896 154.622C507.273 154.957 506.81 155.72 506.188 156.054C508.255 155.904 509.312 154.981 514.772 153.249C514.222 153.541 514.149 154.272 514.778 154.292C511.635 155.909 509.762 156.242 507.388 157.77C509.598 157.81 510.46 157.369 514.055 156.319C517.634 154.861 520.605 153.653 522.256 154.079C526.874 152.601 529.507 152.149 534.072 150.834C540.042 149.285 539.361 151.395 545.628 149.752C547.386 148.982 550.101 148.589 550.159 147.266C550.143 145.821 544.976 146.993 542.874 146.893C543.577 146.577 544.263 145.907 544.864 145.412C543.513 145.596 540.727 144.583 537.194 145.617C535.781 145.915 534.834 147.038 533.444 147.432C530.666 148.306 531.036 146.363 525.884 147.714C524.172 148.556 522.996 149.218 520.947 149.972C518.025 150.597 516.807 150.104 511.58 151.414C508.552 152.601 506.875 153.552 503.771 154.691C503.871 156.274 504.475 155.616 507.896 154.622ZM508.028 162.645C509.651 162.182 511.243 161.34 511.49 160.423C506.129 161.215 505.747 159.782 499.449 161.878C499.423 163.591 505.198 163.589 508.028 162.645ZM511.966 173.051C513.352 172.671 515.81 172.191 515.728 170.605C515.651 169.685 514.566 170.22 513.925 169.711C510.011 171 507.845 172.691 506.935 174.569C508.758 173.969 509.521 173.831 511.966 173.051ZM534.402 152.565C532.086 152.844 531.282 152.824 528.555 153.586C527.619 153.772 521.808 157.275 526.333 155.629C530.356 154.466 533.056 153.699 534.402 152.565ZM592.876 150.294C592.65 148.588 586.008 148.464 581.29 149.842C575.108 150.909 576.386 153.211 573.58 154.045C573.127 154.226 570.507 155.075 570.281 156.378C570.281 156.378 586 154.859 587.907 154.713C591.754 153.761 592.995 152.028 592.876 150.294ZM592.148 138.239C592.37 137.71 592.174 137.608 592.001 137.055C589.297 137.925 591.513 137.194 588.593 137.882C583.483 139.2 574.423 141.762 571.669 143.235C571.673 143.234 587.109 140.302 588.309 140.099C590.439 139.716 592.327 138.875 592.148 138.239ZM379.698 243.647C380.384 244.344 381.45 244.653 382.573 244.206C383.664 243.687 384.015 244.342 385.6 243.757C387.147 242.628 401.899 233.747 402.396 232.812C402.896 230.443 412.525 221.959 419.583 217.98C421.709 216.617 433.429 211.183 434.004 209.854C433.825 207.636 423.265 210.115 418.581 212.214C415.675 213.307 412.878 215.798 411.104 215.78C406.246 217.677 404.334 217.55 399.764 219.127C396.134 220.553 393.75 222.438 391.333 223.785C386.261 226.158 384.291 226.376 379.131 229.848C379.191 231.32 381.778 230.638 381.639 231.692C381.184 235.121 370.917 243.011 370.235 246.461C369.679 247.931 378.125 243.649 379.698 243.647ZM871.848 272.463C875.81 274.201 885.376 277.328 890.099 276.821C892.019 276.798 893.204 276.255 893.736 275.179C886.837 273.246 880.527 270.264 871.848 272.463ZM896.924 296.303C893.944 296.669 891.21 296.979 888.232 297.302C885.21 296.924 882.984 296.785 880.878 294.669C880.432 294.954 879.96 295.743 880.117 296.289C880.844 297.385 892.468 300.442 894.484 300.298C894.893 300.056 897.547 298.683 897.287 297.581C896.958 297.397 897.074 296.65 896.924 296.303ZM848.602 553.627C849.112 554.904 851.38 557.716 853.373 557.743C853.172 557.171 853.238 555.871 853.203 555.253C854.491 555.708 854.634 555.082 856.971 554.52C860.485 553.958 867.864 551.546 871.24 552.684C872.441 553.352 872.695 556.444 875.772 555.877C879.251 555.089 877.834 549.971 881.819 549.062C882.996 548.815 883.816 550.255 885.241 549.952C886.882 549.669 888.381 548.121 890.323 546.456C894.164 545.737 897.936 544.919 901.69 544.259C898.822 541.89 896.094 541.102 892.73 539.547C893.129 539.77 893.548 540.038 893.831 540.158C887.933 538.367 885.054 533.833 874.914 535.649C871.377 536.374 869.914 537.87 865.821 538.646C863.701 539.066 860.978 537.36 857.862 537.995C857.15 538.072 855.663 539.907 855.785 540.578C855.884 541.944 859.122 543.395 860.546 543.12C860.78 544.922 861.675 547.578 864.012 549.055C860.444 551.59 857.311 550.685 849.948 552.123C849.771 552.398 849.085 553.545 848.602 553.627ZM912.366 293.539C912.318 292.782 910.434 292.262 909.768 291.653C907.37 292.719 904.953 298.424 905.268 299.518C905.48 300.643 907.612 301.795 910.518 301.338C913.731 301.211 916.349 299.213 915.995 297.923C915.835 297.508 915.719 296.866 915.56 296.455C908.992 297.04 913.053 295.395 912.366 293.539ZM912.737 542.429C913.355 545.498 917.488 544.939 920.978 544.276C922.375 543.956 925.02 543.51 925.447 541.534C924.502 540.309 916.425 539.898 915.703 539.993C915.001 540.139 912.414 541.333 912.737 542.429ZM676.783 186.374C676.595 187.304 679.038 187.986 682.938 187.252C680.911 186.842 680.297 185.143 676.783 186.374ZM977.757 602.264C976.385 602.627 975.171 606.087 975.501 609.438C975.743 610.142 977.42 609.156 978.081 608.878C979.458 608.612 980.388 605.011 980.735 603.958C980.469 603.448 980.487 602.264 980.317 601.707C979.676 602.003 978.436 602.059 977.757 602.264ZM719.421 160.343C716.081 160.843 710.078 164.195 713.568 163.816C717.206 163.26 718.726 161.943 719.421 160.343ZM722.295 201.03C718.928 200.098 712.433 200.966 712.868 203.393C712.868 203.393 717.215 204.588 717.689 204.586C720.736 204.08 720.808 202.298 722.295 201.03ZM854.077 527.406C853.965 526.733 853.712 525.352 853.519 524.695C852.765 526.176 850.399 528.751 847.789 528.607C847.798 529.062 848.101 529.969 848.17 530.423C848.487 530.395 849.098 530.214 849.415 530.187C850.596 529.938 853.308 528.487 854.077 527.406ZM805.925 486.755C805.808 487.474 807.328 489.152 808.021 488.86C807.417 488.452 806.424 487.289 805.925 486.755ZM1234.36 408.221C1234.37 411.091 1234.29 414.326 1233.73 415.755C1232.57 417.683 1230.32 420.279 1229.81 424.665C1229.46 432.239 1229.73 440.702 1230.54 450.156C1230.82 453.68 1229 456.796 1230.05 461.79C1232.63 471.079 1236.62 478.309 1238.77 489.016C1240.04 495.05 1240.26 506.781 1238.29 510.18C1239.58 513.404 1242.39 517.563 1243.21 520.931C1243.53 522.976 1244.29 524.835 1245.06 528.485C1244.83 528.518 1244.96 528.526 1244.74 528.571C1245.77 530.046 1245.78 530.234 1246.68 531.525C1246.88 532.433 1253.79 541.989 1254.76 542.984C1257.67 546.921 1258.98 552.362 1261.6 558.374C1262.94 561.819 1264.47 562.675 1266.25 564.236C1267.56 565.403 1267.3 566.945 1269.05 569.781C1267.65 545.343 1264.59 520.721 1259.7 496.026C1253.66 465.575 1245.12 436.253 1234.36 408.221ZM795.33 485.009C794.172 485.284 791.707 487.288 791.362 488.26C792.754 487.896 796.494 487.605 799.646 486.688C798.928 486.275 797.519 484.839 795.33 485.009ZM799.192 502.088C799.573 503.854 800.325 507.751 803.545 507.215C804 507.03 804.797 505.856 804.839 505.394C804.308 503.904 803.173 501.686 800.473 501.849C800.159 501.935 799.514 502.084 799.192 502.088ZM760.999 543.831C761.2 544.241 765.303 543.07 765.513 542.944C765.712 541.734 764.889 539.511 764.596 538.373C764.361 538.462 763.816 538.229 763.57 538.281C763.426 538.211 763.068 538.479 762.921 538.41C763.154 538.88 763.282 540.001 763.345 540.533C762.658 540.732 760.665 541.542 760.999 543.831ZM814.387 562.228C814.659 564.009 817.79 566.249 820.392 565.783C824.263 565.037 826.995 563.244 830.538 561.909C830.192 561.029 829.255 559.935 827.111 559.734C827.329 559.79 827.682 560.114 827.88 560.208C826.397 559.995 821.047 559.052 817.218 559.762C816.273 559.956 814.184 561.327 814.387 562.228ZM844.969 538.873C843.221 538.454 840.265 534.509 836.492 534.241C835.295 534.372 832.863 534.633 831.67 534.849C831.388 534.416 831.33 533.169 831.234 532.721C824.017 534.003 815.394 532.341 809.994 528.93C809.399 528.64 805.986 526.146 803.822 526.34C793.145 528.35 785.286 522.263 770.891 524.828C756.266 527.782 750.85 533.79 747.183 543.381C747.823 543.046 749.385 542.987 750.091 542.812C752.778 539.084 760.43 533.319 766.647 531.967C767.805 531.664 770.162 531.379 771.342 532C770.773 532.812 770.517 534.248 772.65 535.231C775.824 534.619 778.656 534.255 781.969 533.408C786.469 532.731 789.482 536.63 794.108 535.794C795.984 535.425 797.935 534.177 800.883 534.799C801.895 535.119 802.251 537.378 804.955 536.842C806.682 541.48 811.7 540.036 817.087 541.112C817.216 542.275 815.646 544.245 814.47 544.478C814.727 544.856 814.751 545.86 814.841 546.313C820.873 545.237 826.365 546.223 833.701 544.85C837.365 544.25 843.356 542.982 844.969 538.873ZM685.454 205.617C685.525 206.186 685.548 206.726 685.811 207.24C690.287 206.287 697.08 202.403 699.468 200.538C695.812 200.506 697.237 200.238 691.188 201.405C691.073 202.226 687.641 203.887 685.454 205.617ZM1027.06 1038.91C1026.14 1039.17 1026.34 1040.26 1024.67 1041.12C1024.53 1041.86 1025.06 1041.95 1024.43 1042.37C1024.95 1042.03 1025.53 1041.97 1025.94 1041.7C1027.49 1041.07 1028.29 1040.43 1029.17 1039.09C1031.05 1038.71 1034.15 1036.83 1034.72 1035.43C1034.81 1034.87 1034.82 1035.02 1034.91 1034.46C1033.72 1035.3 1033.12 1035.1 1031.08 1036.22C1029.54 1036.88 1028.52 1038.19 1027.06 1038.91ZM871.638 290.443C871.451 290.47 871.123 290.465 870.833 290.473C871.197 291.054 871.76 292.085 871.638 290.443ZM1026.67 1037.71C1023.93 1039.14 1021.95 1040.03 1019.07 1041.05C1018.6 1041.36 1019.43 1041.85 1020.63 1041.45C1020.03 1042.91 1018.39 1043.28 1017.28 1044.56C1017.74 1044.25 1017.71 1044.77 1018.26 1044.71C1021.42 1042.65 1023.28 1040.88 1026.51 1038.67C1026.6 1038.12 1026.75 1038.27 1026.67 1037.71ZM870.557 290.425C870.561 290.446 870.571 290.465 870.582 290.48C870.683 290.481 870.741 290.47 870.833 290.473C870.633 290.154 870.49 289.964 870.557 290.425ZM325.375 385.41C325.338 384.711 326.296 383.874 326.382 383.172C326.451 382.3 325.611 382.347 325.385 381.489C325.8 379.776 325.829 378.663 325.421 377.581C325.224 378.572 324.203 380.384 322.795 381.078C321.581 381.863 323.903 378.553 324.013 378.415C322.005 379.22 321.29 378.357 319.475 379.304C319.645 379.737 319.654 380.28 319.444 380.705C320.541 381.634 320.973 383.302 321.787 382.782C323.2 382.449 323.234 383.88 324.972 383.627C324.802 383.938 324.027 384.904 324.173 385.961C323.939 387.35 325.505 388.941 326.993 388.101C329.419 387.223 325.361 386.119 325.375 385.41ZM320.453 363.251C316.468 364.659 315.339 364.971 315.337 369.143C317.448 366.627 316.361 367.981 319.573 367.067C319.057 368.083 319.618 369.279 319.471 370.507C319.644 370.459 321.59 373.156 323.315 372.462C324.409 371.954 324.952 371.203 324.927 369.964C325.089 366.49 319.771 368.247 320.453 363.251ZM308.279 363.165C307.147 360.679 308.263 360.529 308.684 356.203C306.029 358.862 307.689 356.625 304.53 358.443C303.816 359.097 302.399 359.849 302.277 361.255C302.181 363.804 304.049 364.794 306.833 363.596C306.573 366.414 307.234 367.836 309.437 368.778C311.521 366.21 309.665 364.663 310.121 362.196C309.879 362.661 308.303 363.691 308.279 363.165ZM359.063 394.814C362.984 395.653 370.964 397.337 376.55 395.499C377.188 395.155 378.049 395.068 378.697 394.718C378.485 394.236 378.71 393.51 378.596 392.988C372.035 390.19 366.505 388.003 356.561 388.912C354.858 389.218 353.149 387.701 350.474 388.681C349.37 389.156 348.261 390.223 347.429 390.849C347.719 390.999 347.988 390.566 348.309 390.499C349.517 390.248 350.428 390.17 351.64 389.923C351.372 390.429 350.547 391.816 349.474 392.478C350.634 394.487 356.598 393.794 361.258 392.048C360.625 392.683 359.495 393.554 359.063 394.814ZM726.708 271.423C726.992 271.42 727.567 271.432 727.779 271.242C727.042 268.728 723.403 268.25 719.715 268.89C719.867 269.323 720.021 269.922 720.049 270.381C721.399 271.15 724.76 271.943 726.708 271.423ZM712.809 193.061C709.833 191.816 704.827 193.48 699.79 192.738C698.493 192.555 698.932 191.505 697.256 190.902C691.479 188.975 682.532 191.722 675.675 189.629C674.966 190.002 673.875 190.506 673.287 191.048C671.775 190.068 670.156 189.907 668.264 188.5C660.103 190.297 659.815 195.331 660.21 197.432C660.336 198.085 660.448 198.597 660.571 199.255C660.71 200.028 659.141 200.761 657.992 201.379C657.63 202.119 654.095 202.682 654.126 204.662C656.006 204.261 661.741 202.71 666.608 202.315C666.368 203.691 665.698 204.991 669.147 204.405C670.334 204.205 670.633 203.735 671.272 202.983C675.69 202.944 684.412 198.656 683.974 196.037C685.443 196.15 695.691 197.198 695.691 197.198C697.845 196.989 700.794 196.384 703.551 195.918C707.165 195.28 709.882 194.189 712.809 193.061ZM761.205 163.436C760.357 163.109 757.707 162.232 755.047 162.316C754.565 162.299 751.754 163.478 751.708 163.867C751.981 164.607 753.735 164.699 755.637 164.319C758.482 164.106 757.53 164.179 761.205 163.436ZM735.164 192.248C731.214 192.24 731.123 191.231 728.491 193.212C731.661 193.891 732.339 193.697 735.164 192.248ZM1175.35 688.07C1172.46 688.108 1170.99 690.065 1168.04 690.256C1164.5 690.079 1158.04 685.399 1155.53 682.22C1152.71 681.667 1149.56 681.055 1145.13 681.475C1142.74 682.694 1139.84 684.253 1136.93 685.497C1132.62 687.062 1131.57 683.194 1126.38 684.581C1124.32 685.304 1123.7 687.318 1121.63 689.028C1121.12 689.25 1120.53 689.317 1120.01 689.54C1119.87 687.564 1119.8 685.349 1118.82 683.147C1118.11 681.453 1116.29 682.445 1114.04 681.605C1110.68 680.611 1101.4 678.051 1097.07 679.212C1092.83 680.572 1090.86 686.789 1088.89 691.813C1088.57 693.093 1087.47 695.601 1086.53 695.809C1085.84 696.037 1084.94 693.902 1084.92 693.239C1083.01 693.547 1081.19 694.483 1078.86 694.974C1078.09 692.301 1076.47 690.78 1073.72 690.011C1072.44 689.899 1070.06 690.715 1069.72 688.055C1068.98 679.746 1075.48 667.414 1078.96 660.847C1078.45 658.699 1075.39 658.94 1073.57 656.614C1071.91 653.817 1067.26 646.042 1066.69 642.724C1062.09 642.729 1055.22 635.233 1050.84 636.039C1050.4 636.238 1049.71 636.346 1049.24 636.427C1049.38 636.398 1049.13 636.018 1049.15 635.868C1046.59 636.605 1041.81 635.354 1039.74 634.955C1037.7 635.471 1034.86 635.999 1032.63 636.658C1024.81 637.063 1013.84 640.621 1010.02 633.182C1008.83 633.432 1006.11 633.267 1005.48 632.465C1000.46 626.141 998.564 627.643 991.979 623.395C989.437 624.166 986.539 624.606 983.863 625.214C981.734 621.629 982.409 617.411 978.126 616.91C973.574 616.575 967.207 616.972 964.284 613.32C964.07 612.771 964.014 611.581 963.858 611.007C964.681 611.231 967.421 610.378 968.195 609.459C968.195 609.459 962.572 609.764 959.722 610.399C959.036 610.908 952.761 612.777 952.499 613.441C950.81 617.396 948.347 617.926 943.902 619.531C942.01 619.962 937.76 620.319 937.23 617.626C931.826 618.859 926.314 619.916 920.691 621.143C919.221 621.258 916.7 619.635 916.001 616.638C911.408 616.768 903.865 616.548 901.759 612.073C900.354 612.323 897.64 612.79 896.251 613.136C896.704 616.645 901.356 614.311 903.24 617.473C901.386 618.024 898.424 618.589 895.748 619.035C893.316 621.493 888.297 621.833 888.946 626.26C889.443 629.81 893.446 631.027 894.429 634.586C894.487 635.481 893.26 639.626 892.356 639.974C888.531 640.577 885.799 635.368 885.503 632.193C884.932 630.282 885.902 624.206 886.049 619.544C887.006 619.341 888.961 617.751 888.518 615.343C888.527 615.138 886.226 612.283 885.007 612.391C881.382 613.384 880.812 617.736 876.927 619.883C869.219 623.864 864.744 626.044 857.376 630.042C853.558 632.204 850.809 633.466 850.048 638.629C849.959 640.467 850.022 644.862 848.565 646.606C847.137 647.536 844.003 649.696 844.385 652.685C843.944 652.871 842.754 654.098 842.737 654.544C842.952 654.938 843.093 655.879 843.079 656.325C841.615 657.283 841.757 657.058 839.235 657.129C838.649 657.667 837.738 659.057 837.196 659.642C837.595 658.959 838.536 657.592 838.92 656.89C833.061 654.262 830.953 645.844 821.47 647.393C813.65 649.055 810.775 655.621 802.198 657.468C796.514 658.44 795.718 653.255 791.705 652.181C786.025 650.902 778.99 649.808 777.388 643.019C776.135 636.856 775.214 631.141 773.81 624.84C775.24 621.492 773.187 609.822 772.668 607.078C772.646 605.971 771.998 603.696 771.787 602.599C765.734 602.54 762.831 597.976 754.842 599.44C743.375 601.79 735.003 605.256 724.099 607.41C722.665 607.743 720.054 606.974 719.51 604.903C719.381 604.556 719.16 603.777 719.219 603.4C720.496 601.903 724.451 599.312 723.92 596.261C722.78 591.398 721.882 586.62 721.077 581.915C721.687 581.682 723.062 581.494 723.705 581.387C723.677 581.905 724.082 582.971 724.122 583.491C725.598 580.148 727.021 577.757 726.091 572.866C725.024 567.041 729.356 560.801 728.644 556.538C728.524 555.884 728.249 554.511 728.112 553.856C726.689 554.156 721.477 554.725 720.474 554.752C719.468 554.406 716.645 554.379 713.759 555.162C704.831 556.941 693.334 558.925 694.77 567.768C695.53 572.274 691.119 577.244 690.264 581.063C690.204 581.967 689.19 586.105 686.633 586.745C685.697 586.966 683.646 585.495 680.096 586.178C673.376 587.538 669.251 592.565 663.034 593.931C661.112 594.249 659.9 591.853 656.82 591.451C647.63 590.65 646.885 585.863 640.107 581.546C637.519 579.915 632.431 576.593 630.705 574.492C628.683 572.004 630.177 570.073 628.383 567.582C627.642 566.889 624.698 564.745 624.68 562.189C623.749 556.673 622.72 551.342 621.538 545.66C621.634 540.949 623.614 538.708 622.52 533.21C622.31 531.898 621.049 530.018 620.347 528.78C620.216 528.654 619.94 528.287 620.035 528.131C620.14 527.953 620.778 528.248 620.885 528.058C620.88 527.395 618.938 526.103 618.744 525.46C617.305 516.677 619.597 508.033 626.388 504.104C629.336 502.212 632.634 503.805 634.753 500.816C638.085 496.606 640.967 488.499 650.388 486.372C654.089 485.726 656.405 488.16 659.971 487.404C661.372 487.028 662.926 484.414 664.363 484.077C670.929 482.839 680.194 490.915 688.785 485.149C684.351 483.515 686.66 480.277 686.325 475.964C684.856 476.599 685.253 477.146 681.782 476.878C687.025 474.05 693.832 473.306 698.825 471.03C698.975 471.682 700.843 473.097 701.546 472.902C703.465 472.606 704.548 469.773 709.21 468.965C717.003 467.322 721.773 473.582 727.729 472.261C729.873 471.826 731.176 467.677 734.116 467.094C748.619 464.466 748.191 482.515 755.201 491.192C758.771 495.489 762.108 496.518 767.164 500.156C769.596 502.858 770.208 506.993 775.146 506.278C780.682 505.132 781.116 499.429 779.885 493.15C778.809 487.63 775.381 485.554 773.583 482.192C773.582 481.816 773.331 481.1 773.29 480.732C771.117 471.36 761.961 470.356 759.745 460.647C755.656 439.336 771.03 435.203 784.746 424.971C784.497 424.904 784.018 424.683 783.77 424.605C784.995 423.073 784.721 421.869 788.402 419.937C790.298 419.312 792.048 416.463 795.642 415.114C796.938 414.707 798.161 412.369 798.71 411.347C797.684 410.994 795.618 410.226 794.541 410.057C794.511 409.465 794.142 408.4 794.05 407.813C796.181 407.377 798.411 407.216 798.361 404.129C797.132 404.007 795.172 404.22 793.449 402.439C794.649 402.236 797.388 400.744 796.91 398.294C796.748 397.581 796.552 396.221 796.292 395.531C795.75 395.368 794.643 395.879 794.078 395.914C792.402 394.865 793.76 394.466 793.152 391.753C792.461 388.959 789.966 384.206 789.42 382.37C789.42 382.37 788.685 379.922 788.952 378.731C790.081 381.579 794.061 384.909 794.449 387.222C794.657 388.004 794.975 389.452 795.123 390.252C795.288 390.659 796.278 391.721 796.755 391.7C797.401 391.361 801.637 380.477 801.486 379.147C800.954 377.456 798.642 376.761 797.47 374.428C797.814 374.001 798.455 373.266 798.738 372.795C799.252 373.192 800.716 374.73 801.435 374.601C803.09 374.196 807.401 363.599 807.532 361.464C807.532 361.464 804.17 359.794 803.982 358.688C803.591 358.165 804.827 356.995 805.414 356.499C806.148 356.466 807.554 356.272 808.293 356.312C812.767 355.085 815.727 355.183 819.792 353.067C817.978 352.154 814.909 353.982 812.016 354.312C811.213 354.387 809.662 354.519 808.904 354.823C814.44 350.215 825.078 350.121 830.437 345.309C831.547 346.002 836.785 344.533 840.386 342.961C840.186 342.484 840.063 341.616 839.929 341.112C839.929 341.112 837.468 343.321 836.996 343.474C835.575 343.746 833.004 340.273 832.796 339.186C832.025 339.145 831.245 337.62 830.964 337.015C828.797 326.485 840.221 328.158 844.349 323.161C847.061 321.548 847.186 320.904 850.841 320.366C855.084 319.849 857.859 317.707 859.325 314.699C858.743 314.439 857.999 313.486 857.513 313.069C857.486 312.846 857.348 312.434 857.147 312.344C857.124 312.12 857.04 311.785 856.948 311.585C857.482 311.585 859.211 311.271 859.942 311.185C861.379 310.957 869.348 310.825 871.716 309.109C874.044 307.048 873.048 304.026 877.419 303.198C878.45 306.523 878.098 306.909 882.875 306.412C876.084 307.684 866.804 313.232 868.149 318.796C868.735 320.69 874.081 324.534 875.801 324.425C877.662 323.923 881.897 316.743 887.297 314.246C888.501 313.976 906.283 304.979 906.184 302.883C905.289 300.298 898.023 300.715 896.108 300.961C887.653 301.842 872.76 296.566 870.581 290.481C868.947 290.478 866.238 290.294 864.092 290.597C865.276 288.422 875.306 286.174 874.14 281.052C872.666 276.863 864.216 278.411 857.879 279.22C844.825 281.023 841.082 288.935 832.26 291.425C834.545 284.206 841.072 285.429 846.332 279.396C849.615 275.206 845.81 273.764 851.701 271.25C862.076 267.078 868.613 268.036 879.861 266.819C894.454 265.246 906.595 268.994 912.501 259.321C915.247 254.78 935.987 253.634 934.413 248.016C933.053 243.899 930.521 242.309 927.043 240.092C925.113 240.119 927.502 238.507 924.015 237.68C923.91 237.008 923.433 236.319 923.324 235.642C917.794 238.277 905.841 241.932 899.025 242.632C898.335 242.857 896.304 242.482 896.028 242.172C900.964 239.834 915.398 237.641 916.312 234.082C916.141 233.22 913.857 233.04 913.332 232.321C906.704 233.312 892.52 232.551 890.387 226.732C890.234 226.667 890.26 226.394 890.216 226.224C884.053 226.655 879.682 224.663 875.542 223.287C876.64 222.574 879.27 222 878.731 219.953C878.265 218.326 875.283 217.054 875.251 215.507C872.352 215.132 862.391 212.797 863.777 209.405C865.323 205.313 853.696 205.628 851.065 201.394C850.343 201.474 846.695 200.257 845.622 199.735C844.016 200.756 839.283 202.875 840.594 204.794C843.001 208.13 838.275 209.345 833.7 211.854C830.606 213.631 828.582 216.64 825.551 216.924C820.448 217.461 815.205 212.666 811.681 212.837C806.867 213.239 807.023 205.338 805.207 201.832C802.362 197.697 788.502 202.296 786.363 196.639C778.083 196.959 778.401 193.848 770.095 194.988C768.331 195.127 765.861 195.532 763.736 195.851C755.264 196.985 749.549 195.018 741.139 196.273C736.719 196.921 732.686 198.654 733.369 201.57C733.911 203.174 744.814 203.738 736.075 208.686C732.526 210.559 742.665 213.031 743.847 215.166C746.192 220.318 738.214 222.549 734.378 223.966C739.248 226.811 747.231 226.505 751.488 229.053C754.954 231.424 754.246 236.323 755.507 241.714C755.901 244.961 740.194 255.581 734.186 257.545C745.714 259.085 743.708 269.292 748.661 272.039C747.909 273.229 745.442 277.809 745.507 279.718C741.792 280.683 738.804 282.196 735.487 281.251C726.918 278.724 714.353 273.862 713.02 268.931C711.767 263.598 711.152 259.112 701.867 257.775C695.208 257.727 688.656 258.08 682.074 258.4C669.823 256.399 656.964 255.837 642.982 255.968C640.99 255.899 633.194 254.755 628.925 255.58C624.396 256.692 622.789 259.608 618.295 260.488C617.378 256.638 611.532 248.961 604.898 250.1C601.858 250.91 600.727 252.466 597.798 253.426C598.542 251.437 597.26 250.766 596.701 246.259C595.68 239.692 598.755 233.086 605.028 227.928C607.119 225.626 611.27 219.19 613.409 218.162C618.225 216.23 623.448 218.461 622.947 214.764C622.391 212.277 611.491 214.848 607.209 214.614C609.435 214.521 600.131 213.265 624.766 211.799C631.129 211.027 626.61 208.165 630.114 207.376C631.825 206.899 634.246 206.339 636.498 206.002C643.687 204.471 646.607 200.114 650.904 197.432C650.738 196.66 650.66 196.057 650.496 195.281C640.327 196.041 630.966 198.881 625.685 195.646C627.079 195.254 629.398 194.689 630.848 194.528C634.764 194.61 638.767 196.076 644.419 195.048C649.057 193.974 659.221 191.095 659.171 189.393C658.52 186.693 657.701 185.695 657.052 185.363C662.795 184.528 665.578 186.5 669.478 185.903C672.614 185.032 675.776 184.859 679.137 184.147C677.666 183.707 678.104 180.956 682.455 182.829C684.817 183.865 697.731 175.313 697.684 173.442C697.167 172.128 690.629 172.084 690.283 171.193C690.141 170.104 685.635 169.078 694.257 165.261C695.172 163.814 694.1 164.367 693.473 161.979C689.021 162.752 687.165 162.304 685.008 161.874C691.924 160.743 698.24 159.783 702.163 159.269C702.236 160.221 701.414 161.906 705.041 161.433C710.372 160.669 713.628 156.059 717.218 155.368C720.555 155.298 736.781 157.818 739.67 158.521C738.249 158.81 733.139 159.51 733.31 160.833C733.57 160.831 734.967 161.836 735.932 161.852C739.608 161.131 740.941 159.795 744.575 159.377C750.452 158.884 769.701 161.986 770.93 164.892C771.43 166.666 766.292 169.438 763.997 170.937C762.189 171.545 756.986 171.49 757.418 173.492C757.646 174.522 761.978 175.038 763.223 175.312C759.881 176.491 753.387 178.143 750.871 178.515C746.508 179.059 742.726 179.472 738.56 180.146C734.541 180.479 727.73 183.621 727.885 184.947C728.502 186.68 737.832 186.933 741.152 186.543C744.627 186.226 745.866 184.22 749.314 183.593C751.447 183.371 751.483 184.137 754.407 183.804C756.562 183.587 758.454 182.249 759.642 181.315C768.533 182.259 773.659 183.89 783.614 184.655C780.15 189.067 796.838 187.292 804.276 188.064C812.055 189.067 816.9 188.167 825.723 188.945C826.434 189.128 827.798 190.306 828.997 190.17C829.957 190.085 831.52 189.396 831.317 188.494C829.74 185.215 813.826 184.108 808.148 181.919C809.327 182.143 811.17 181.693 812.376 181.538C815.941 182.902 834.543 184.424 839.816 184.16C840.553 182.598 842.659 180.465 842.324 179.178C841.712 177.866 836.735 177.741 836.457 176.854C836.098 176.05 835.877 175.394 835.657 174.535C834.329 174.854 832.337 174.778 830.971 174.873C829.75 172.929 828.35 174.282 822.774 174.079C820.856 173.654 816.305 171.622 815.226 170.219C814.183 170.274 812.66 170.495 811.618 170.519C811.482 169.867 811.353 169.394 811.041 168.812C812.063 169.007 813.576 168.893 815.192 168.471C814.949 168.006 814.977 167.597 814.734 167.132C812.57 167.381 811.804 167.589 809.126 167.354C809.299 167.182 812.495 165.832 814.232 165.667C827.843 164.703 830.516 172.116 844.313 171.406C847.358 171.084 847.147 169.432 846.692 168.042C851.909 167.585 852.277 166.749 852.124 166.386C851.901 165.861 851.661 165.518 851.587 164.95C854.943 164.78 859.343 164.365 858.877 162.704C858.229 160.695 855.92 160.225 850.715 160.515C849.522 160.554 847.033 160.562 845.695 160.212C842.589 157.921 842.191 159.898 836.059 160.185C832.125 160.329 830.094 158.784 828.712 156.753C823.012 156.937 815.398 156.358 813.778 153.892C810.079 154.671 808.584 153.842 805.838 153.62C807.676 151.372 809.922 151.714 813.953 150.504C812.997 150.022 810.754 149.817 809.547 149.842C806.535 150.045 804.119 149.976 801.294 150.257C803.011 148.712 806.403 148.595 810.299 148.069C807.786 146.908 805.672 145.777 801.786 146.129C800.446 145.923 798.519 146.284 797.168 146.489C796.979 145.764 796.945 145.363 796.552 144.727C788.766 144.681 784.186 143.782 776.421 143.483C776.572 141.147 769.649 142.066 766.697 142.31C764.737 142.751 762.194 142.686 759.807 143.029C750.561 143.891 747.715 140.504 741.138 139.86C737.057 139.115 725.418 140.332 719.97 140.955C714.945 141.511 714.287 144.499 709.558 145.043C707.435 145.449 706.036 144.521 702.882 144.963C700.239 145.168 698.995 146.475 697.599 146.822C696.401 146.912 697.302 145.258 697.075 144.782C696.537 142.316 691.892 139.543 684.575 140.782C673.47 142.406 655.525 147.108 656.081 150.959C656.328 152.259 659.168 151.932 659.427 153.237C659.585 154.282 655.981 156.019 654.291 156.354C650.839 156.995 651.352 156.145 651.156 155.102C651.156 155.102 650.418 154.218 650.774 153.23C649.598 153.463 648.529 153.404 648.365 152.629C647.775 149.42 656.765 147.688 659.172 145.144C658.939 145.173 649.869 145.81 649.863 145.812C640.525 147.648 633.856 150.636 628.555 153.911C627.792 154.706 629.127 156.142 627.134 157.184C623.034 158.97 621.802 159.928 622.411 163.04C622.737 164.185 627.055 165.027 627.055 165.027C627.055 165.027 639.712 162.958 642.567 162.99C642.688 163.549 642.705 163.824 642.826 164.383C637.993 165.077 633.887 165.448 630.204 166.593C631.227 168.21 635.116 167.542 636.95 168.57C641.47 167.892 645.866 166.61 650.4 165.947C652.081 166.58 657.074 166.923 659.285 166.541C659.653 166.465 660.051 166.386 660.43 166.311C660.823 168.313 665.14 167.637 665.425 169.039C665.636 170.6 659.226 171.579 657.99 173.23C656.202 175.778 657.314 177.441 653.671 180.929C647.996 186.45 641.678 183.903 641.255 182.3C640.823 180.298 645.71 180.106 645.472 177.911C644.919 176.948 636.398 174.911 634.074 175.418C625.722 177.175 632.608 181.595 623.733 183.642C623.014 181.061 622.659 179.799 616.345 179.845C617.017 179.072 618.008 178.13 618.893 177.614C614.17 177.499 608.287 179.881 604.539 178.849C606.149 178.041 611.3 175.762 611.044 174.077C610.54 171.572 602.685 173.589 602.031 171.757C601.498 168.661 597.418 167.498 590.447 168.268C592.485 166.961 593.767 166.215 594.24 164.684C593.256 165.019 591.689 165.179 590.696 165.52C591.978 162.77 592.187 164.426 598.226 162.998C606.603 161.011 609.837 158.099 613.193 155.396C613.193 155.396 617.711 153.038 617.863 152.811C617.718 152.26 617.797 152.054 617.649 151.504C607.758 153.808 600.384 154.194 590.892 156.349C585.239 157.515 583.776 159.475 583.813 159.608C583.933 159.982 583.457 160.768 583.93 160.607C582.202 161.227 579.73 161.658 577.76 162.136C577.725 162.884 577.988 163.11 577.957 163.858C580.096 165.385 578.254 167.31 582.864 167.722C582.844 168.228 582.889 168.789 582.931 169.694C579.333 170.928 581.119 171.431 581.632 172.795C578.354 174.017 573.903 174.685 574.203 176.661C574.376 178.229 576.662 177.727 576.776 179.311C576.906 180.873 573.228 181.244 573.555 183.214C574.18 187.694 592.06 180.13 593.217 184.695C593.163 185.645 591.535 189.271 591.535 189.271C593.243 188.655 595.005 187.529 597.241 186.495C601.48 191.261 583.205 192.862 583.675 199.731C574.555 203.289 581.282 197.141 578.845 195.94C577.903 195.423 570.516 196.413 566.116 197.538C561.178 198.942 559.365 200.728 559.691 203.777C554.713 204.873 546.461 204.304 530.846 208.903C516.048 213.284 504.659 214.356 500.889 210.204C495.921 212.06 481.087 217.569 480.829 220.611C480.941 221.71 482.078 221.808 484.142 220.97C488.32 219.809 495.039 216.189 498.151 214.205C499.386 218.589 486.24 218.882 486.158 223.629C486.08 224.723 489.085 226.946 487.901 227.245C482.341 228.88 481.737 225.957 477.125 226.259C475.866 226.357 474.515 226.383 473.267 226.605C467.699 228.482 462.549 230.465 457.126 232.313C451.826 233.785 449.105 236.345 443.535 238.549C433.812 242.515 433.97 240.568 433.969 240.101C434.02 238.678 441.283 236.416 442.833 235.184C435.921 232.512 437.301 232.632 423.799 238.977C409.166 245.378 399.114 243.328 385.719 249.596C381.508 251.428 383.814 252.834 380.397 254.787C378.078 255.693 376.445 254.927 375.688 253.805C371.813 256.481 371.447 258.849 367.286 261.09C363.634 263.047 358.853 260.209 357.549 260.861C353.388 263.028 354.765 265.725 350.43 268.022C348.715 268.906 348.004 269.413 347.221 268.194C340.859 272.07 339.293 273.687 333.822 278.093C331.872 279.538 327.809 284.863 325.343 284.617C321.055 284.405 321.24 287.56 319.801 288.822C308.066 296.089 316.091 294.296 314.295 295.157C310.353 297.917 300.874 302.695 295.329 304.385C280.417 326.787 267.22 350.322 255.822 374.769C257.086 373.351 258.55 371.877 259.611 370.668C261.005 373.647 265.539 371.282 270.292 369.494C272.879 367.308 275.677 365.878 278.454 363.957C282.976 363.574 287.971 359.639 292.354 359.919C295.539 359.523 296.213 362.747 299.956 360.775C301.724 359.999 301.975 358.234 302.795 356.683C305.001 357.322 305.315 357.432 308.025 355.935C308.999 354.825 309.882 354.797 311.26 355.21C310.74 356.149 309.142 357.464 309.243 359.286C309.132 360.232 311.016 360.47 311.891 360.076C314.527 358.932 313.425 357.698 317.085 355.514C317.083 356.197 316.99 356.774 316.995 357.455C316.673 358.682 314.154 360.207 314.022 361.471C314.157 362.4 314.954 363.374 317.334 362.002C321.331 360.581 323.02 358.949 323.083 361.429C323.088 362.215 323.117 362.947 323.008 363.728C323.213 365.452 327.769 365.916 331.317 364.408C331.708 363.705 332.618 363.637 333.359 363.314C333.378 364.105 334.513 363.996 334.548 364.956C334.586 367.012 336.072 376.899 339.013 376.548C340.925 376.148 342.275 375.498 343.711 375.828C346.126 376.745 343.247 379.678 345.933 379.81C345.933 379.81 351.644 380.021 351.883 380.504C353.823 383.624 353.817 388.008 361.77 384.998C363.04 387.966 370.7 382.662 373.099 386.352C373.995 387.844 379.578 385.883 382.291 386.825C383.216 386.979 384.057 387.034 385 386.917C386.05 388.424 388.244 388.014 388.385 389.768C388.31 391.182 386.432 394.06 385.282 395.666C384.085 394.23 381.833 393.91 378.141 395.186C377.385 395.782 374.694 396.738 374.652 397.699C375.165 401.407 380.712 400.874 381.197 404.791C381.418 410.29 378.184 436.363 380.947 442.136C383.91 447.977 383.555 451.365 386.761 456.339C385.66 457.626 383.201 460.124 384.786 462.045C389.899 468.595 396.397 478.217 402.116 477.688C402.086 489.11 406.996 483.667 412.241 492.141C413.01 493.898 412.749 497.046 415.109 497.503C425.103 498.517 439.222 500.692 445.066 507.952C444.906 507.906 444.658 508.057 444.497 508.093C444.621 508.595 444.712 509.515 444.781 510.026C447.878 516.079 450.331 517.01 453.676 521.324C455.79 524.349 456.994 532.001 460.552 533.423C465.887 535.473 471.584 540.224 476.892 545.312C479.95 548.369 472.801 548.879 471.598 549.138C475.329 552.736 481.493 550.484 486.085 553.465C489.652 555.672 492.405 558.22 496.123 560.692C496.423 562.579 496.996 565.686 497.429 568.152C498.219 569.232 498.733 569.415 500.831 570.092C504.555 571.533 508.301 577.462 513.89 576.453C514.118 577.339 519.414 581.604 519.905 581.546C520.591 581.304 521.272 577.865 521.205 576.747C520.815 575.007 516.369 570.3 514.33 573.125C508.193 570.728 505.176 563.857 501.666 557.362C498.225 551.749 492.403 550.095 489.015 543.898C486.668 539.376 485.653 536.719 480.983 533.68C477.517 531.379 473.988 532.43 471.196 528.661C468.203 524.47 464.952 521.522 463.873 515.599C463.764 514.942 463.399 512.871 463.887 511.822C467.912 514.479 472.469 513.119 477.855 514.189C479.914 514.761 480.662 520.929 483.765 523.01C486.517 524.967 486.582 529.833 489.723 531.91C493.493 534.343 496.692 536.605 501.371 539.569C501.87 538.718 501.883 538.908 504.62 538.819C505.955 545.788 514.749 544.239 518.706 548.769C520.613 551.692 518.944 554.792 521.984 556.73C525.203 558.831 530.387 559.058 534.105 561.298C541.821 566.359 550.514 574.281 556.283 584.213C557.006 585.665 559.791 586.424 560.644 590.318C561.561 593.581 558.63 595.842 559.112 599.163C559.639 601.076 562.285 604.592 564.881 604.063C567.195 607.653 576.565 607.877 581.058 610.572C582.006 610.961 583.952 611.545 584.908 611.939C589.265 612.889 591.228 611.875 595.877 612.802C600.281 614.109 602.403 617.266 607.015 617.639C610.992 617.841 612.654 615.678 616.375 616.374C620.342 617.268 631.895 622.057 636.012 621.438C637.913 621.047 640.909 619.863 643.522 620.568C644.573 620.782 647.953 622.417 650.511 621.946C656.072 620.759 655.826 614.875 661.636 613.583C663.546 613.204 666.094 613.62 669.243 614.55C669.726 614.468 670.723 614.256 671.203 614.161C680.8 616.484 685.546 628.134 696.798 630.796C703.996 632.498 708.009 630.24 714.945 631.565C719.537 632.631 723.404 634.901 729.691 633.922C731.343 633.517 733.285 631.797 735.613 631.209C736.099 631.232 737.117 630.981 737.573 630.821C741.076 637.648 746.898 639.039 753.231 642.901C754.628 643.763 756.99 644.567 758.482 647.098C761.043 651.483 758.537 655.958 764.044 658.044C764.778 657.709 766.516 657.596 767.303 657.384C766.733 657.061 766.453 655.486 766.781 654.732C767.009 654.645 779.158 658.592 780.764 660.242C782.03 661.826 782.912 665.109 787.836 665.301C787.839 665.743 789.34 666.879 789.814 666.736C791.467 666.394 796.765 663.51 799.618 665.074C802.706 667.028 806.927 671.787 812.184 670.808C814.123 670.558 816.098 668.486 816.189 665.368C815.671 665.232 813.354 664.088 813.068 663.231C813.062 661.925 820.506 653.814 822.943 653.26C826.355 652.591 825.553 659.66 829.527 660.658C829.196 661.609 828.066 663.106 828.138 663.998C828.284 664.665 831.626 665.24 832.218 665.552C832.42 665.561 832.719 665.157 832.913 665.091C832.883 665.574 832.7 666.567 832.748 667.056C833.904 672.374 839.09 670.095 840.544 676.421C841.034 679.375 839.79 680.844 840.358 684.366C840.843 686.07 842.963 687.991 843.485 690.397C843.514 690.771 843.692 691.508 843.766 691.881C843.563 692.525 843.058 693.806 842.93 694.472C843.045 695.124 845.362 696.64 846.66 696.706C846.001 705.061 837.657 704.5 835.167 711.805C833.549 717.082 832.77 724.989 824.01 727.063C827.739 739.785 824.279 746.003 825.398 752.592C826.16 756.701 827.669 761.871 832.293 761.151C833.946 760.775 833.866 759.321 837.117 760.414C836.447 765.066 831.234 767.421 829.073 772.397C828.27 773.428 826.53 778.068 827.121 781.529C828.02 786.299 833.542 791.208 837.544 793.431C838.703 794.03 841.301 793.172 842.668 794.63C843.658 796.008 845.261 799.88 847.829 801.494C848.788 801.74 850.929 801.042 852.255 802.507C855.866 807.078 858.375 810.06 861.741 815.931C864.896 821.147 867.68 826.866 871.227 832.602C873.381 836.329 877.989 837.16 878.721 841.26C879.396 844.613 878.542 847.538 881.27 849.036C887.719 852.742 892.182 855.056 901.135 855.264C905.485 855.435 907.278 855.656 911.512 858.016C915.196 859.837 918.467 858.831 923.11 859.288C929.162 860.634 933.749 862.635 937.419 868.023C938.544 870.647 941.976 884.546 942.238 886.912C942.595 890.61 940.885 897.668 941.296 901.144C941.537 904.47 942.013 907.652 942.507 911.385C942.081 913.81 941.24 918.377 941.443 919.932C941.599 920.576 941.59 921.309 941.678 921.966C942.371 929.646 938.616 935.282 939.488 943.777C939.98 947.236 937.134 951.111 939.168 954.413C939.813 959.845 940.551 964.831 940.989 969.84C939.78 975.064 939.971 978.421 938.611 983.562C938.256 984.412 937.014 984.736 936.279 985.619C935.2 987.267 934.737 990.016 933.763 991.875C931.543 995.029 928.234 1000.47 928.544 1004.85C928.467 1006.38 929.491 1010.98 930.446 1010.8C930.446 1010.8 931.885 1011.02 932.214 1012.31C932.051 1012.94 931.364 1013.57 929.635 1014.13C928.952 1017.64 927.253 1019.41 927.607 1022.72C927.928 1024.91 927.618 1029.02 929.899 1028.6C931.436 1027.88 931.802 1026.82 933.723 1025.62C934.405 1025.3 935.433 1025.24 936.097 1024.92C936.271 1026.01 936.22 1026.32 936.26 1027.43C933.149 1035.27 930.353 1043.05 927.03 1050.51C923.354 1051.67 924.741 1048.78 920.181 1050.09C918.983 1050.3 917.83 1051.02 917.935 1052.2C918.013 1052.18 917.761 1052.26 917.684 1052.27C917.084 1052.51 917.534 1052.97 917.769 1053.57C918.575 1055.58 921.392 1055.51 921.675 1057.03C921.306 1060.1 916.246 1061.66 916.092 1063.79C916.277 1066.02 920.285 1068.88 920.363 1071.43C920.687 1072.27 920.485 1072.12 920.432 1073.02C920.625 1075.29 927.17 1072.95 927.286 1075.56C927.21 1076.72 926.359 1076.98 925.596 1077.9C926.309 1077.99 926.847 1077.88 927.572 1077.85C926.905 1079.46 923.108 1079.29 922.936 1081.02C923.087 1081.38 924.228 1081.43 925.148 1081.39C928.599 1081.97 930.04 1082.61 937.038 1080.47C937.419 1081.4 937.659 1081.5 939.64 1080.93C941.048 1080.32 942.73 1080.09 944.185 1079.46C943.853 1082.9 949.426 1079.56 952.808 1078.78C956.692 1078.24 954.51 1081.2 959.791 1079.3C962.107 1078.59 963.971 1077.57 966.245 1077C966.9 1076.67 967.926 1076.12 968.567 1075.79C969.366 1075.39 970.217 1075.04 971.094 1074.86C973.367 1074.08 979.035 1070.2 982.46 1068.85C983.874 1068.52 984.897 1068.1 986.099 1067.17C980.135 1068.39 974.273 1069.78 969.237 1069.37C966.186 1069.28 966.864 1064.58 962.693 1064.68C961.272 1065.02 959.415 1065.31 959.221 1063.39C959.438 1059.74 960.559 1059.49 963.492 1056.9C965.717 1055.4 969.44 1054.57 971.279 1052.25C972.827 1050.2 972.297 1049.11 974.08 1047.3C977.803 1044.48 983.534 1041.85 983.691 1038.42C983.573 1034.26 973.104 1040.34 972.921 1035.09C973.21 1032.88 976.251 1029.75 980.363 1027.88C981.854 1027.06 989.667 1027.68 990.444 1025.84C991.997 1021.51 992.089 1018.83 996.525 1014.22C995.266 1014.5 993.934 1014.47 993.875 1012.78C996.219 1011.74 997.113 1013.04 1000.2 1011.91C1000.6 1011.63 1002.88 1010.23 1002.69 1008.93C1002.84 1007.83 1001.72 1008.62 1000.53 1008.1C999.897 1008.53 998.204 1010.02 997.083 1010.5C995.083 1011.34 992.08 1008.22 991.959 1005.73C991.802 1004.64 992.489 1003.27 994.45 1002.83C999.495 1000.84 1000.31 1002.95 1005.5 1001.19C1007.06 1000.5 1010.78 998.131 1011.16 997.085C1011.02 996.368 1011.11 996.124 1011.2 995.391C1012.91 992.359 1009.59 991.083 1012.87 987.714C1015.25 985.168 1023.03 984.252 1026.94 981.868C1032.82 978.214 1037.36 977.139 1041.79 972.52C1043.99 969.729 1045.88 968.188 1048.12 964.63C1049.48 962.984 1049.47 961.895 1049.46 959.325C1049.75 956.926 1045.9 958.94 1045.09 957.077C1044.04 954.458 1044.19 953.304 1042.33 952.379C1041.4 952.065 1038.08 952.709 1038.01 950.81C1038 950.151 1039.28 949.357 1039.95 949.112C1043.83 947.606 1046.79 948.775 1050 947.464C1051.58 946.862 1056.64 946.698 1060.6 945.222C1071.35 940.717 1073.4 930.786 1078.08 922.759C1082.26 916.097 1087.4 909.903 1091.75 902.793C1093.79 899.196 1092.57 904.1 1094.1 900.689C1094.12 900.712 1094.14 900.758 1094.14 900.8C1096.53 895.632 1098.93 891.373 1103.23 887.203C1103.3 881.805 1102.87 876.049 1102.68 870.147C1102.41 866.152 1102 870.886 1105.16 866.857C1106.9 864.397 1109.93 863.346 1111.62 859.575C1115.67 851.686 1120.76 852.462 1126.23 844.997C1126.73 844.152 1126.85 842.864 1128.39 841.651C1131.33 838.826 1134.57 837.65 1138.65 835.744C1142.3 834.312 1146.44 829.244 1147.7 825.93C1148.16 825.03 1147.86 822.469 1148.78 820.621C1151.76 814.813 1152.74 812.222 1155.85 805.609C1156.27 804.698 1156.65 799.666 1156.86 797.515C1156.7 795.74 1158.47 792.683 1159.41 791.113C1159.7 790.443 1160.57 789.019 1160.36 787.915C1160.49 784.995 1161.56 772.2 1161.4 768.054C1161.21 762.413 1157.67 761.547 1160.42 756.454C1162.3 753.297 1164.41 751.741 1166.35 747.455C1167.64 744.683 1168.28 743.895 1169.37 741.234C1174.36 728.85 1181.87 716.34 1180.97 698.036C1180.64 692.667 1179.23 688.081 1175.35 688.07ZM857.388 312.921C856.937 312.434 856.378 311.385 855.864 310.956C856.473 311.226 857.043 312.35 857.388 312.921ZM855.644 310.592C855.22 310.029 854.792 308.916 854.416 308.312C854.832 308.884 855.268 309.985 855.644 310.592ZM853.253 305.474C852.976 304.657 852.533 303.382 852.213 302.58C852.812 303.193 852.929 304.67 853.253 305.474ZM751.926 344.896C752.15 345.196 752.525 345.758 752.814 345.992C752.444 345.971 752.11 345.225 751.926 344.896ZM753.18 346.478C753.541 346.948 754.089 347.855 754.458 348.32C754.01 347.934 753.549 346.953 753.18 346.478ZM752.926 339.896C759.416 337.155 772.842 331.9 780.643 330.334C782.432 339.522 762.73 340.625 753.713 342.057C752.549 342.224 752.341 342.596 750.075 342.946C750.503 343.297 751.195 344.043 751.553 344.471C751.064 343.878 749.551 343.3 749.357 342.569C749.117 341.572 752.239 340.201 752.926 339.896ZM749.941 351.204C750.643 350.742 751.723 350.095 752.728 349.461C746.448 353.591 735.08 360.645 727.578 362.276C724.382 362.723 722.526 359.453 721.929 356.851C722.861 357.671 725.779 359.191 727.194 358.971C729.305 358.619 730.299 356.721 731.009 355.678C733.475 353.126 737.94 352.121 742.33 351.529C746.514 350.948 748.856 352.01 749.941 351.204ZM657.181 316.683C661.016 314.833 661.779 315.919 664.836 313.886C667.69 311.999 665.708 308.754 668.754 307.972C672.407 307.514 675.884 311.11 677.019 311.662C677.39 310.784 676.777 308.719 676.694 308.317C677.307 308.188 678.489 307.965 679.11 307.838C680.523 307.614 695.336 313.234 696.106 313.805C698.53 316.393 697.104 318.841 700.018 320.446C708.25 324.428 717.228 322.033 725.9 324.069C727.954 323.992 731.114 323.12 733.847 322.624C737.945 324.05 742.946 325.446 743.844 329.096C744.075 330.508 742.845 332.401 741.418 332.553C737.794 333.514 733.151 330.368 731.938 329.989C731.505 333.885 731.269 346.128 726.965 347.15C723.323 345.826 723.065 344.113 721.034 340.336C718.096 341.604 719.001 342.415 715.237 343.221C715.43 339.584 717.422 336.894 716.731 333.548C716.084 330.727 703.875 328.423 701.429 328.918C696.385 329.999 702.899 334.454 691.622 337.48C688.254 338.137 689.684 345.53 690.408 348.778C690.813 350.926 691.49 354.078 691.975 356.685C692.776 360.157 692.601 367.534 687.919 368.637C684.522 369.359 680.465 367.889 679.834 365.062C678.606 358.74 678.622 345.669 682.753 339.107C679.746 339.763 678.899 341.804 676.044 344.004C675.923 338.89 686.616 329.889 693.372 328.459C695.24 328.17 702.753 327.939 707.157 325.804C707.065 324.99 706.787 323.727 706.563 322.934C700.014 323.986 696.035 321.903 688.487 323.184C685.113 323.811 684.433 326.385 680.422 327.261C678.79 327.601 675.199 326.798 674.655 325.437C673.117 325.794 670.55 326.155 668.551 326.667C669.232 324.909 671.41 323.366 670.761 320.022C666.479 321.83 661.786 327.196 658.366 328.018C656.259 328.375 655.861 331.635 650.733 332.862C648.868 333.197 647.455 333.389 645.736 331.417C644.154 331.976 642.573 332.985 640.561 334.263C639.389 334.428 637.182 334.971 636.016 335.237C641.959 326.739 649.647 322.608 657.181 316.683ZM930.074 1038.34C930.275 1036.47 929.826 1036.12 929.801 1034.24C929.798 1033.62 930.874 1033.52 930.729 1032.4C930.507 1030.93 929.795 1030.3 927.427 1031.07C926.029 1031.39 924.61 1036.14 924.61 1036.14C924.611 1036.96 924.746 1037.11 924.743 1037.93C924.746 1038.68 926.323 1039.4 927.741 1039.02C928.4 1038.73 929.351 1038.44 930.074 1038.34ZM749.297 165.67C747.894 161.674 730.882 163.284 731.737 167.955C732.166 169.479 735.228 170.135 739.512 169.486C743.092 169.17 749.574 167.14 749.297 165.67ZM212.307 652.564C211.051 652.694 211.787 652.418 210.976 651.746C210.711 652.448 210.66 652.814 210.358 653.643C210.473 654.58 210.55 655.535 211.79 655.413C212.753 655.31 211.842 655.142 212.806 655.046C212.449 654.269 212.4 653.421 212.307 652.564Z" fill="url(#paint0_linear_8964_4790)" fill-opacity="0.5"/>
<circle cx="400.354" cy="379.5" r="8.75" fill="black" stroke="#FF8902" stroke-width="1.5"/>
<circle cx="389.354" cy="407.5" r="8.75" fill="black" stroke="#FF8902" stroke-width="1.5"/>
<circle cx="804.854" cy="341" r="9.25" fill="black" stroke="#FF8902" stroke-width="1.5"/>
<circle cx="828.854" cy="324" r="9.25" fill="black" stroke="#FF8902" stroke-width="1.5"/>
<circle cx="800.854" cy="352" r="9.25" fill="black" stroke="#FF8902" stroke-width="1.5"/>
<circle cx="773.854" cy="366" r="9.25" fill="black" stroke="#FF8902" stroke-width="1.5"/>
<circle cx="719.354" cy="358" r="9.25" fill="black" stroke="#FF8902" stroke-width="1.5"/>
<circle cx="714.854" cy="391" r="9.25" fill="black" stroke="#FF8902" stroke-width="1.5"/>
<circle cx="753.854" cy="334" r="9.25" fill="black" stroke="#FF8902" stroke-width="1.5"/>
<circle cx="666.854" cy="285" r="9.25" fill="black" stroke="#FF8902" stroke-width="1.5"/>
<circle cx="762.854" cy="482" r="9.25" fill="black" stroke="#FF8902" stroke-width="1.5"/>
<circle cx="747.854" cy="452" r="9.25" fill="black" stroke="#FF8902" stroke-width="1.5"/>
<circle cx="618.854" cy="502" r="9.25" fill="black" stroke="#FF8902" stroke-width="1.5"/>
<circle cx="585.854" cy="497" r="9.25" fill="black" stroke="#FF8902" stroke-width="1.5"/>
<circle cx="565.854" cy="411" r="9.25" fill="black" stroke="#FF8902" stroke-width="1.5"/>
<circle cx="580.854" cy="447" r="9.25" fill="black" stroke="#FF8902" stroke-width="1.5"/>
<circle cx="547.854" cy="442" r="9.25" fill="black" stroke="#FF8902" stroke-width="1.5"/>
<circle cx="300.854" cy="642" r="9.25" fill="black" stroke="#FF8902" stroke-width="1.5"/>
<circle cx="791.854" cy="378" r="9.25" fill="black" stroke="#FF8902" stroke-width="1.5"/>
<circle cx="796.854" cy="368" r="9.25" fill="black" stroke="#FF8902" stroke-width="1.5"/>
<circle cx="477.854" cy="422" r="9.25" fill="black" stroke="#FF8902" stroke-width="1.5"/>
</g>
<defs>
<linearGradient id="paint0_linear_8964_4790" x1="1042.79" y1="603.353" x2="322.291" y2="-0.647494" gradientUnits="userSpaceOnUse">
<stop offset="0.12" stop-color="#5E01D5"/>
<stop offset="1" stop-color="#FF8902"/>
</linearGradient>
<radialGradient id="paint1_radial_8964_4790" cx="0" cy="0" r="1" gradientUnits="userSpaceOnUse" gradientTransform="translate(719.354 358) rotate(90) scale(10)">
<stop offset="0.418289" stop-color="#2D1A05"/>
<stop offset="1" stop-color="#FF8902"/>
</radialGradient>
<clipPath id="clip0_8964_4790">
<rect width="1181" height="1018" fill="white"/>
</clipPath>
</defs>
</svg>
